<?xml version="1.0" encoding="iso-8859-1"?>
<!-- Generator: Adobe Illustrator 17.0.0, SVG Export Plug-In . SVG Version: 6.00 Build 0)  -->
<!DOCTYPE svg PUBLIC "-//W3C//DTD SVG 1.1//EN" "http://www.w3.org/Graphics/SVG/1.1/DTD/svg11.dtd">
<svg version="1.1" id="Capa_1" xmlns="http://www.w3.org/2000/svg" xmlns:xlink="http://www.w3.org/1999/xlink" x="0px" y="0px"
	 width="64px" height="64px" viewBox="0 0 64 64" style="enable-background:new 0 0 64 64;" xml:space="preserve">
<g>
	<path d="M55.124,22.342c-6.236,0.772-4.039,4.692-4.039,4.692c-1.115-2.561,4.454-3.326,3.564,0.713
		c-0.891,4.039-10.397,0.422-10.397,0.422l-0.009,0.017c-0.393-0.189-0.789-0.374-1.205-0.533
		c-3.837-1.473-7.824-1.344-11.037,0.036c-3.214-1.38-7.2-1.509-11.038-0.036c-0.41,0.158-0.801,0.341-1.189,0.526l-0.006-0.01
		c0,0-9.506,3.616-10.397-0.422c-0.891-4.039,4.678-3.274,3.563-0.713c0,0,2.198-3.92-4.039-4.692
		c-6.236-0.772-9.325,5.583-5.108,11.7c3.692,5.356,14.088,3.935,18.806,2.638c0.095-0.025,0.19-0.057,0.285-0.085
		c0.535-0.155,1.005-0.306,1.348-0.441c3.517-1.35,6.218-3.788,7.773-6.63c1.556,2.842,4.256,5.28,7.773,6.63
		c0.087,0.034,0.176,0.054,0.263,0.086c0.255,0.093,0.553,0.19,0.892,0.292c0.203,0.061,0.406,0.124,0.609,0.176
		c4.766,1.289,15.029,2.649,18.693-2.667C64.449,27.925,61.36,21.57,55.124,22.342z"/>
</g>
</svg>
