<?xml version="1.0" encoding="iso-8859-1"?>
<!-- Generator: Adobe Illustrator 17.0.0, SVG Export Plug-In . SVG Version: 6.00 Build 0)  -->
<!DOCTYPE svg PUBLIC "-//W3C//DTD SVG 1.1//EN" "http://www.w3.org/Graphics/SVG/1.1/DTD/svg11.dtd">
<svg version="1.1" id="Capa_1" xmlns="http://www.w3.org/2000/svg" xmlns:xlink="http://www.w3.org/1999/xlink" x="0px" y="0px"
	 width="64px" height="64px" viewBox="0 0 64 64" style="enable-background:new 0 0 64 64;" xml:space="preserve">
<g>
	<path d="M32,43.448c13.588,0,24.602-2.547,24.602-5.688c0-1.136-1.445-2.193-3.926-3.081c0.031,0.768,0.064,1.535,0.079,2.333
		l0.015,0.742l-0.632,0.39c-0.345,0.213-3.673,2.04-16.717,2.456v0.085h-1.3c-0.739,0-1.445-0.005-2.107-0.013
		c-0.691,0.008-1.398,0.013-2.136,0.013l-1.3-0.049V40.6c-13.044-0.416-16.372-2.243-16.717-2.456l-0.632-0.39l0.015-0.742
		c0.016-0.797,0.048-1.564,0.079-2.333c-2.48,0.888-3.926,1.945-3.926,3.081C7.398,40.901,18.412,43.448,32,43.448z"/>
	<path d="M32,39.372c0.687,0.008,1.388,0.013,2.122,0.013v-0.049C48.276,39,51.456,37.037,51.456,37.037
		c-0.019-0.954-0.055-1.874-0.096-2.785c-0.737-16.411-4.85-25.801-6.133-28.453c-0.9-1.859-2.995-2.802-5.067-2.802
		c-1.047,0-2.089,0.241-2.968,0.726C35.716,4.536,33.582,4.748,32,4.778c-1.582-0.03-3.716-0.242-5.191-1.056
		c-0.879-0.485-1.921-0.726-2.968-0.726c-2.073,0-4.168,0.943-5.067,2.802c-1.283,2.652-5.396,12.042-6.133,28.453
		c-0.041,0.911-0.077,1.831-0.096,2.785c0,0,3.18,1.963,17.335,2.298v0.049C30.612,39.385,31.313,39.379,32,39.372z M25.264,32.289
		c-3.388-0.169-7.491-0.526-11.076-1.276c0,0,0.013-2.81,0.268-4.683c0,0,10.225,1.414,17.683,1.422
		c1.961-0.002,4.12-0.105,6.232-0.254l-0.052-0.655c-0.067-0.856,0.575-1.607,1.429-1.674l6.069-0.473
		c0.806,0,1.487,0.63,1.55,1.434l0.038,0.483c1.366-0.167,2.206-0.284,2.206-0.284c0.271,2.371,0.202,4.683,0.202,4.683
		c-0.661,0.14-1.343,0.263-2.031,0.377l0.078,0.99c0.028,0.352-0.069,0.692-0.262,0.981c-0.034,0.051-0.065,0.104-0.106,0.152
		c-0.27,0.316-0.647,0.508-1.061,0.541l-6.07,0.473c-0.806,0-1.487-0.63-1.55-1.434l-0.063-0.796
		c-3.493,0.172-6.18,0.137-6.611,0.13C31.693,32.435,28.888,32.47,25.264,32.289z"/>
	<path d="M39.913,29.156l2.554-0.201c0.397-0.038,0.727,0.259,0.758,0.646c0.031,0.388-0.259,0.727-0.646,0.758l-2.555,0.201
		l0.131,1.659l0.014,0.175l0.046,0.589c0.006,0.077,0.07,0.136,0.146,0.136v0.693v0.011l0-0.011l0.013-0.694l3.809-0.3l2.138-0.168
		c0.069-0.005,0.141-0.089,0.135-0.159l-0.07-0.887l-0.38-4.825l-0.042-0.538c-0.006-0.077-0.07-0.136-0.146-0.136l-5.958,0.469
		c-0.081,0.006-0.143,0.078-0.136,0.16l0.052,0.659L39.913,29.156z"/>
	<path d="M24.029,58.137l0.987,0.987c0.001,0,0.002,0,0.004,0l0.987-0.987l1.165,1.165c0.004,0,0.009,0.001,0.013,0.001l1.166-1.166
		l1.307,1.307c0.008,0,0.015,0.001,0.023,0.001l1.307-1.307l1.362,1.362c0.02,0,0.041-0.001,0.061-0.001l1.361-1.361l1.257,1.257
		l1.257-1.257l1.121,1.121c0.001,0,0.003,0,0.004,0l1.121-1.121l0.939,0.939c0,0,0.001,0,0.002,0l0.939-0.939l0.496,0.496
		c2.075-2.753,1.927-6.008,1.927-6.015c0.005-0.293-0.029-0.448-0.029-0.448c-0.305-2.38-2.902-4.24-6.061-4.24
		c-1.928,0-3.643,0.694-4.759,1.774c-1.116-1.08-2.832-1.774-4.759-1.774c-3.153,0-5.747,1.852-6.06,4.225
		c0,0-0.001,0.007-0.001,0.01c-0.001,0.01-0.006,0.9,0.031,1.108c0.153,1.5,0.445,3.163,2.087,5.61L24.029,58.137z"/>
</g>
</svg>
