<?xml version="1.0" encoding="iso-8859-1"?>
<!-- Generator: Adobe Illustrator 17.0.0, SVG Export Plug-In . SVG Version: 6.00 Build 0)  -->
<!DOCTYPE svg PUBLIC "-//W3C//DTD SVG 1.1//EN" "http://www.w3.org/Graphics/SVG/1.1/DTD/svg11.dtd">
<svg version="1.1" id="Capa_1" xmlns="http://www.w3.org/2000/svg" xmlns:xlink="http://www.w3.org/1999/xlink" x="0px" y="0px"
	 width="64px" height="64px" viewBox="0 0 64 64" style="enable-background:new 0 0 64 64;" xml:space="preserve">
<g>
	<path d="M7.526,37.76c0,3.141,11.015,5.688,24.602,5.688c13.588,0,24.602-2.547,24.602-5.688c0-1.136-1.445-2.193-3.926-3.081
		c0.031,0.768,0.064,1.535,0.079,2.333l0.015,0.742l-0.632,0.39c-0.345,0.213-3.673,2.04-16.717,2.456v0.085h-1.3
		c-0.739,0-1.445-0.005-2.107-0.013c-0.691,0.008-1.398,0.013-2.136,0.013l-1.3-0.049V40.6c-13.044-0.416-16.372-2.243-16.717-2.456
		l-0.632-0.39l0.015-0.742c0.016-0.797,0.048-1.564,0.079-2.333C8.972,35.567,7.526,36.624,7.526,37.76z"/>
	<path d="M32.129,39.372c0.687,0.008,1.388,0.013,2.122,0.013v-0.049C48.405,39,51.585,37.037,51.585,37.037
		c-0.019-0.954-0.056-1.874-0.096-2.785c-0.737-16.411-4.85-25.801-6.133-28.453c-0.9-1.859-2.995-2.802-5.067-2.802
		c-1.047,0-2.089,0.241-2.968,0.726c-1.475,0.814-3.609,1.026-5.191,1.056c-1.582-0.03-3.716-0.242-5.191-1.056
		c-0.879-0.485-1.921-0.726-2.968-0.726c-2.073,0-4.168,0.943-5.067,2.802c-1.283,2.652-5.396,12.042-6.133,28.453
		c-0.041,0.911-0.077,1.831-0.096,2.785c0,0,3.18,1.963,17.335,2.298v0.049C30.741,39.385,31.442,39.379,32.129,39.372z
		 M25.393,32.289c-3.388-0.169-7.491-0.526-11.076-1.276c0,0,0.013-2.81,0.268-4.683c0,0,10.225,1.414,17.683,1.422
		c1.961-0.002,4.12-0.105,6.232-0.254l-0.052-0.655c-0.067-0.856,0.574-1.607,1.429-1.674l6.069-0.473
		c0.806,0,1.487,0.63,1.55,1.434l0.038,0.483c1.366-0.167,2.206-0.284,2.206-0.284c0.271,2.371,0.202,4.683,0.202,4.683
		c-0.66,0.14-1.342,0.263-2.031,0.377l0.078,0.99c0.028,0.352-0.069,0.692-0.262,0.981c-0.034,0.051-0.065,0.104-0.106,0.152
		c-0.27,0.316-0.647,0.508-1.061,0.541l-6.07,0.473c-0.806,0-1.487-0.63-1.55-1.434l-0.063-0.796
		c-3.493,0.172-6.18,0.137-6.611,0.13C31.822,32.435,29.017,32.47,25.393,32.289z"/>
	<path d="M40.042,29.156l2.554-0.201c0.397-0.038,0.727,0.259,0.758,0.646s-0.259,0.727-0.646,0.758l-2.555,0.201l0.131,1.659
		l0.014,0.175l0.046,0.589c0.006,0.077,0.07,0.136,0.146,0.136v0.693v0.011l0-0.011l0.013-0.694l3.809-0.3l2.138-0.168
		c0.069-0.005,0.141-0.089,0.135-0.159l-0.07-0.887l-0.38-4.825l-0.042-0.538c-0.006-0.077-0.07-0.136-0.146-0.136l-5.958,0.469
		c-0.081,0.006-0.143,0.078-0.136,0.16l0.052,0.659L40.042,29.156z"/>
	<path d="M20.396,47.085c-1.72,0-3.114,1.394-3.114,3.114c0,1.674,1.323,3.028,2.979,3.1c-0.016,0.146-0.027,0.293-0.027,0.443
		c0,2.164,1.755,3.919,3.919,3.919c0.73,0,1.779-0.351,2.849-0.892c0.694,2.077,2.722,3.576,5.032,3.576s4.267-1.499,4.961-3.576
		c1.07,0.541,2.12,0.892,2.849,0.892c2.164,0,3.919-1.755,3.919-3.919c0-0.15-0.01-0.297-0.027-0.443
		c1.656-0.072,2.979-1.426,2.979-3.1c0-1.72-1.394-3.114-3.114-3.114c-0.329,0-0.64,0.063-0.937,0.157
		c0.207,1.677-0.284,3.76-4.217,3.332c-1.44-0.157-2.548-0.179-3.406-0.12c-0.134,0.041-0.496,0.078-0.544,0.052
		c-1.896,0.236-2.387,1.038-2.5,1.36c-0.113-0.323-0.605-1.124-2.5-1.36c-0.048,0.026-0.41-0.011-0.544-0.052
		c-0.858-0.059-1.966-0.037-3.406,0.12c-3.932,0.428-4.424-1.655-4.217-3.332C21.036,47.148,20.725,47.085,20.396,47.085z"/>
</g>
</svg>
