<?xml version="1.0" encoding="iso-8859-1"?>
<!-- Generator: Adobe Illustrator 17.0.0, SVG Export Plug-In . SVG Version: 6.00 Build 0)  -->
<!DOCTYPE svg PUBLIC "-//W3C//DTD SVG 1.1//EN" "http://www.w3.org/Graphics/SVG/1.1/DTD/svg11.dtd">
<svg version="1.1" id="Capa_1" xmlns="http://www.w3.org/2000/svg" xmlns:xlink="http://www.w3.org/1999/xlink" x="0px" y="0px"
	 width="64px" height="64px" viewBox="0 0 64 64" style="enable-background:new 0 0 64 64;" xml:space="preserve">
<g>
	<path d="M7.455,30.875c-0.062-0.003-0.117,0.003-0.173,0.009c-0.031-0.002-0.058-0.009-0.09-0.009c-1.358,0-1.358,1.106,0,1.106
		c0.056,0,0.106-0.009,0.157-0.016c0.036,0.005,0.068,0.014,0.106,0.016c5.127,0.244,10.266,1.254,15.163,2.981
		c1.284,0.453,1.831-1.582,0.56-2.031C18.106,31.142,12.766,31.127,7.455,30.875z"/>
	<path d="M22.898,37.631c1.359,0.015,1.357-2.091,0-2.106c-6.76-0.075-13.36,1.219-19.935,2.67
		c-0.085,0.019-0.161,0.045-0.231,0.077c-1.104,0.24-1.022,1.079,0.247,1.079c0.193,0,0.356-0.046,0.495-0.12
		c0.017-0.003,0.032-0.002,0.048-0.006C9.916,37.815,16.323,37.558,22.898,37.631z"/>
	<path d="M22.794,38.107c-3.708,0.773-7.187,2.188-10.605,3.791c-1.229,0.576-0.159,1.391,1.063,0.818
		c3.259-1.529,6.569-1.842,10.102-2.579C24.682,39.861,24.119,37.831,22.794,38.107z"/>
	<path d="M56.718,30.884c-0.056-0.006-0.112-0.012-0.173-0.009c-5.311,0.252-10.651,0.268-15.723,2.056
		c-1.272,0.448-0.724,2.483,0.56,2.031c4.897-1.727,10.036-2.737,15.163-2.981c0.038-0.002,0.07-0.011,0.106-0.016
		c0.051,0.007,0.101,0.016,0.157,0.016c1.358,0,1.358-1.106,0-1.106C56.776,30.875,56.749,30.881,56.718,30.884z"/>
	<path d="M61.267,38.272c-0.07-0.032-0.146-0.058-0.231-0.077c-6.574-1.451-13.174-2.745-19.935-2.67
		c-1.357,0.015-1.359,2.121,0,2.106c6.576-0.073,12.982,0.184,19.375,1.595c0.017,0.004,0.032,0.003,0.048,0.006
		c0.138,0.073,0.301,0.12,0.495,0.12C62.29,39.351,62.372,38.511,61.267,38.272z"/>
	<path d="M51.812,41.899c-3.418-1.604-6.897-3.018-10.605-3.791c-1.325-0.276-1.889,1.753-0.56,2.031
		c3.533,0.737,6.843,1.05,10.102,2.579C51.971,43.29,53.041,42.475,51.812,41.899z"/>
	<path d="M34.12,29.96c-1.15-1.15-3.014-1.15-4.164,0l-2.288,0.521c-1.15,1.15-1.15,3.014,0,4.164l2.288,2.288
		c1.15,1.15,3.014,1.15,4.164,0l2.288-2.288c1.15-1.15,1.15-3.015,0-4.164L34.12,29.96z"/>
</g>
</svg>
