<?xml version="1.0" encoding="iso-8859-1"?>
<!-- Generator: Adobe Illustrator 17.0.0, SVG Export Plug-In . SVG Version: 6.00 Build 0)  -->
<!DOCTYPE svg PUBLIC "-//W3C//DTD SVG 1.1//EN" "http://www.w3.org/Graphics/SVG/1.1/DTD/svg11.dtd">
<svg version="1.1" id="Capa_1" xmlns="http://www.w3.org/2000/svg" xmlns:xlink="http://www.w3.org/1999/xlink" x="0px" y="0px"
	 width="64px" height="64px" viewBox="0 0 64 64" style="enable-background:new 0 0 64 64;" xml:space="preserve">
<g>
	<path d="M11.674,19.038c0.792-0.744,1.669-1.395,2.643-1.949c4.808-2.735,11.205-2.735,17.979-2.735c6.773,0,13.171,0,17.979,2.735
		c0.974,0.554,1.852,1.206,2.643,1.949c-1.459-7.255-6.826-12.683-13.87-14.814c-0.607-0.12-1.2-0.208-1.778-0.265
		c2.728,1.39,4.301,2.976,4.433,3.114c0.382,0.398,0.369,1.031-0.029,1.414c-0.194,0.186-0.443,0.278-0.692,0.278
		c-0.262,0-0.524-0.103-0.72-0.307c-0.175-0.181-3.158-3.182-8.199-4.241c-5.195,1.069-8.281,4.195-8.324,4.24
		c-0.196,0.205-0.459,0.308-0.722,0.308c-0.249,0-0.499-0.093-0.692-0.278c-0.398-0.383-0.412-1.016-0.029-1.414
		c0.132-0.138,1.708-1.727,4.439-3.118c-0.122,0.012-0.24,0.016-0.363,0.031C18.922,5.929,13.19,11.501,11.674,19.038z"/>
	<path d="M32.296,16.354c-9.032,0-16.897,0.007-21.001,6.247c-1.925,2.928-3.026,7.222-3.026,13.541c0,2.482,0.56,4.855,1.573,7.044
		c-0.143-0.782-0.224-1.578-0.224-2.388c0-3.539,1.422-6.367,3.793-8.539c4.177-3.827,11.312-5.609,18.885-5.609
		c7.573,0,14.708,1.783,18.885,5.609c2.371,2.172,3.793,4.999,3.793,8.539c0,0.81-0.081,1.607-0.224,2.388
		c1.013-2.189,1.573-4.562,1.573-7.044c0-6.319-1.101-10.613-3.026-13.541C49.193,16.36,41.328,16.354,32.296,16.354z"/>
	<path d="M38.616,55.233c0.039,0.362,0.137,0.677,0.273,0.959c0.167,0.349,0.396,0.638,0.675,0.867
		c0.143,0.117,0.296,0.219,0.461,0.306c1.552,0.815,3.934,0.261,4.911-1.548c0.105-0.195,0.205-0.411,0.301-0.643
		c0.022-0.053,0.041-0.115,0.062-0.17c0.156-0.404,0.301-0.847,0.424-1.333c0.102-0.401,0.187-0.83,0.262-1.27
		c0.614-3.575,0.308-8.184-1.846-9.793c-0.555-0.415-1.179-0.763-1.826-1.054c-2.817-1.271-6.077-1.474-6.077-1.474
		c-1.487-0.261-2.853,0.191-3.644,0.883c-0.791-0.692-2.157-1.144-3.644-0.883c0,0-3.491,0.222-6.371,1.617
		c-0.54,0.262-1.061,0.56-1.531,0.911c-2.226,1.662-2.484,6.534-1.786,10.152c0.086,0.448,0.191,0.867,0.305,1.268
		c0.138,0.487,0.293,0.933,0.466,1.323c0.037,0.085,0.076,0.165,0.115,0.244c0.035,0.072,0.068,0.154,0.104,0.221
		c0.933,1.726,3.147,2.315,4.697,1.658c0.193-0.082,0.371-0.187,0.539-0.307c0.307-0.22,0.563-0.506,0.753-0.857
		c0.151-0.278,0.266-0.591,0.319-0.953c0.066-0.455,0.049-0.975-0.081-1.565c-1.01-4.595-1.162-8.851,4.041-9.66
		c0.194-0.03,0.368-0.067,0.54-0.106c0.671-0.15,1.18-0.358,1.537-0.604c0.336,0.232,0.801,0.432,1.415,0.58
		c0.204,0.049,0.424,0.093,0.661,0.129c5.202,0.808,5.051,5.065,4.041,9.66C38.591,54.33,38.57,54.807,38.616,55.233z"/>
</g>
</svg>
