<?xml version="1.0" encoding="iso-8859-1"?>
<!-- Generator: Adobe Illustrator 17.0.0, SVG Export Plug-In . SVG Version: 6.00 Build 0)  -->
<!DOCTYPE svg PUBLIC "-//W3C//DTD SVG 1.1//EN" "http://www.w3.org/Graphics/SVG/1.1/DTD/svg11.dtd">
<svg version="1.1" id="Capa_1" xmlns="http://www.w3.org/2000/svg" xmlns:xlink="http://www.w3.org/1999/xlink" x="0px" y="0px"
	 width="64px" height="64px" viewBox="0 0 64 64" style="enable-background:new 0 0 64 64;" xml:space="preserve">
<g>
	<path d="M11.701,20.363c0.792-0.744,1.669-1.395,2.643-1.949c4.808-2.735,11.205-2.735,17.979-2.735c6.773,0,13.171,0,17.979,2.735
		c0.974,0.554,1.852,1.206,2.643,1.949c-1.459-7.256-6.829-12.686-13.874-14.815c-0.607-0.12-1.199-0.208-1.776-0.265
		c2.73,1.39,4.304,2.977,4.436,3.115c0.382,0.398,0.369,1.031-0.029,1.414c-0.194,0.186-0.443,0.278-0.692,0.278
		c-0.262,0-0.523-0.103-0.72-0.307c-0.175-0.181-3.161-3.182-8.206-4.24c-5.191,1.071-8.274,4.194-8.317,4.239
		c-0.196,0.205-0.459,0.308-0.722,0.308c-0.249,0-0.498-0.093-0.692-0.278c-0.398-0.383-0.411-1.016-0.029-1.414
		c0.132-0.138,1.705-1.726,4.435-3.117c-0.121,0.012-0.238,0.016-0.361,0.031C18.948,7.255,13.217,12.826,11.701,20.363z"/>
	<path d="M56.35,37.467c0-6.319-1.101-10.613-3.026-13.541c-4.104-6.241-11.968-6.247-21.001-6.247
		c-9.032,0-16.897,0.007-21.001,6.247c-1.925,2.928-3.026,7.222-3.026,13.541c0,2.482,0.56,4.855,1.573,7.044
		c-0.143-0.782-0.224-1.578-0.224-2.388c0-3.539,1.422-6.367,3.793-8.539c4.177-3.827,11.312-5.609,18.885-5.609
		c7.573,0,14.708,1.783,18.885,5.609c2.371,2.172,3.793,4.999,3.793,8.539c0,0.81-0.081,1.607-0.224,2.388
		C55.79,42.322,56.35,39.949,56.35,37.467z"/>
	<path d="M20.075,55.585c-0.197,0.276-0.399,0.548-0.605,0.816c-0.026,0.034-0.053,0.068-0.08,0.102
		c-1.55,2.004-3.329,3.737-5.159,4.573c0,0,4.211,0.525,8.222-3.127c0.087-0.079,0.174-0.156,0.261-0.239
		c0.257-0.247,0.512-0.516,0.766-0.799c0.233-0.26,0.465-0.532,0.693-0.825c0.828-1.065,1.618-2.353,2.326-3.912
		c1.602-3.531,2.76-5.632,3.588-6.881C31.579,43.047,32,43.572,32,43.572s0.426-0.532,1.938,1.761
		c0.827,1.253,1.977,3.347,3.561,6.841c0.741,1.634,1.574,2.966,2.445,4.059c0.235,0.295,0.473,0.572,0.712,0.833
		c0.264,0.287,0.53,0.554,0.798,0.802c0.095,0.088,0.19,0.175,0.284,0.258c3.952,3.462,8.029,2.951,8.029,2.951
		c-1.754-0.802-3.46-2.426-4.964-4.324c-0.033-0.042-0.065-0.084-0.098-0.125c-0.21-0.269-0.416-0.541-0.618-0.819
		c-0.198-0.273-0.393-0.549-0.582-0.828c-3.497-5.155-5.344-11.042-2.876-8.541c3.723,3.772,6.515,2.339,6.515,2.339
		s-2.877,0.905-4.484-5.432c-0.049-0.192-0.125-0.365-0.187-0.548C40.493,36.945,32,35.725,32,35.725s-8.186,1.172-10.364,6.747
		c-0.111,0.283-0.22,0.567-0.297,0.873c-1.608,6.338-4.484,5.432-4.484,5.432s2.792,1.434,6.515-2.339
		c2.433-2.465,0.673,3.22-2.726,8.32C20.459,55.037,20.269,55.312,20.075,55.585z"/>
</g>
</svg>
