<?xml version="1.0" encoding="iso-8859-1"?>
<!-- Generator: Adobe Illustrator 17.0.0, SVG Export Plug-In . SVG Version: 6.00 Build 0)  -->
<!DOCTYPE svg PUBLIC "-//W3C//DTD SVG 1.1//EN" "http://www.w3.org/Graphics/SVG/1.1/DTD/svg11.dtd">
<svg version="1.1" id="Capa_1" xmlns="http://www.w3.org/2000/svg" xmlns:xlink="http://www.w3.org/1999/xlink" x="0px" y="0px"
	 width="64px" height="64px" viewBox="0 0 64 64" style="enable-background:new 0 0 64 64;" xml:space="preserve">
<g>
	<path d="M11.378,19.038c0.792-0.744,1.669-1.395,2.643-1.949c4.808-2.735,11.205-2.735,17.979-2.735s13.171,0,17.979,2.735
		c0.974,0.554,1.852,1.206,2.643,1.949c-1.459-7.255-6.826-12.683-13.87-14.814c-0.608-0.12-1.201-0.208-1.78-0.265
		c2.729,1.39,4.303,2.977,4.435,3.114c0.382,0.398,0.369,1.031-0.029,1.414c-0.194,0.186-0.443,0.278-0.692,0.278
		c-0.262,0-0.524-0.103-0.72-0.307c-0.175-0.181-3.158-3.182-8.201-4.241c-5.193,1.07-8.278,4.195-8.321,4.24
		c-0.196,0.205-0.459,0.308-0.722,0.308c-0.249,0-0.499-0.093-0.692-0.278C21.631,8.104,21.618,7.472,22,7.073
		c0.132-0.138,1.707-1.726,4.437-3.118c-0.123,0.012-0.241,0.016-0.365,0.031C18.624,5.931,12.893,11.502,11.378,19.038z"/>
	<path d="M7.973,36.142c0,2.482,0.56,4.855,1.573,7.045c-0.143-0.782-0.224-1.578-0.224-2.389c0-3.539,1.422-6.367,3.793-8.539
		C17.292,28.433,24.427,26.65,32,26.65s14.708,1.783,18.885,5.609c2.371,2.172,3.793,4.999,3.793,8.539
		c0,0.811-0.081,1.607-0.224,2.389c1.013-2.189,1.573-4.562,1.573-7.045c0-6.319-1.101-10.613-3.026-13.541
		C48.897,16.36,41.032,16.354,32,16.354s-16.897,0.007-21.001,6.247C9.074,25.528,7.973,29.823,7.973,36.142z"/>
	<path d="M29.5,37.845c0,0-6.197-2.312-7.704,3.595c-0.653,2.558-0.416,6.668,1.578,13.17c0.117,0.38,0.226,0.75,0.355,1.147
		c0.12,0.369,0.259,0.765,0.39,1.148c0.052,0.154,0.102,0.304,0.156,0.46c0.354,1.019,0.731,2.07,1.164,3.193
		c0,0,0.031-1.134,0.114-2.844c0.007-0.149,0.015-0.301,0.023-0.459c0.016-0.321,0.035-0.66,0.055-1.012
		c0.019-0.326,0.038-0.662,0.06-1.009c0.242-3.853,0.695-8.86,1.497-11.722c0.233-0.83,0.494-1.486,0.789-1.873
		c2.108-2.764,4.759-2.225,1.938-3.659L29.5,37.845z"/>
	<path d="M35.165,37.845l-0.414,0.137c-2.821,1.434-0.17,0.895,1.938,3.659c0.276,0.362,0.523,0.958,0.744,1.714
		c0.819,2.796,1.283,7.824,1.532,11.728c0.022,0.345,0.043,0.682,0.062,1.008c0.02,0.353,0.039,0.69,0.055,1.014
		c0.008,0.149,0.015,0.296,0.022,0.438c0.09,1.808,0.122,3.018,0.122,3.018c0.454-1.206,0.848-2.33,1.216-3.417
		c0.05-0.148,0.097-0.291,0.145-0.437c0.129-0.388,0.269-0.791,0.387-1.164c0.128-0.402,0.234-0.773,0.35-1.158
		c2.005-6.674,2.239-10.829,1.577-13.367C41.378,35.174,35.165,37.845,35.165,37.845z"/>
</g>
</svg>
