<?xml version="1.0" encoding="iso-8859-1"?>
<!-- Generator: Adobe Illustrator 17.0.0, SVG Export Plug-In . SVG Version: 6.00 Build 0)  -->
<!DOCTYPE svg PUBLIC "-//W3C//DTD SVG 1.1//EN" "http://www.w3.org/Graphics/SVG/1.1/DTD/svg11.dtd">
<svg version="1.1" id="Capa_1" xmlns="http://www.w3.org/2000/svg" xmlns:xlink="http://www.w3.org/1999/xlink" x="0px" y="0px"
	 width="64px" height="64px" viewBox="0 0 64 64" style="enable-background:new 0 0 64 64;" xml:space="preserve">
<g>
	<path d="M54.255,21.184c-1.059,7.058-10.941,8.47-10.941,6.176c0-2.294,0.706-15.529-3-16.587s-2.294-6.529-4.235-7.058
		c-1.463-0.399-3.123-0.302-3.854-0.229c-0.731-0.072-2.392-0.17-3.854,0.229c-1.941,0.529-0.529,6-4.235,7.058s-3,14.293-3,16.587
		c0,2.294-9.882,0.882-10.941-6.176c-1.059-7.058-9.882,10.058-1.235,16.94c7.833,6.235,20.88,6.242,23.265,6.188
		c2.385,0.054,15.432,0.047,23.265-6.188C64.137,31.242,55.314,14.126,54.255,21.184z M24.489,25.111
		c-0.731,0-1.323-0.593-1.323-1.323s0.593-1.323,1.323-1.323c0.731,0,1.323,0.593,1.323,1.323S25.22,25.111,24.489,25.111z
		 M29.253,26.169c-0.731,0-1.323-0.593-1.323-1.323c0-0.731,0.593-1.323,1.323-1.323c0.731,0,1.323,0.593,1.323,1.323
		C30.577,25.577,29.984,26.169,29.253,26.169z M35.606,26.169c-0.731,0-1.323-0.593-1.323-1.323c0-0.731,0.593-1.323,1.323-1.323
		s1.323,0.593,1.323,1.323C36.929,25.577,36.337,26.169,35.606,26.169z M40.37,25.111c-0.731,0-1.323-0.593-1.323-1.323
		s0.593-1.323,1.323-1.323c0.731,0,1.323,0.593,1.323,1.323S41.101,25.111,40.37,25.111z"/>
	<path d="M39.082,53.65c1.305-0.592,6.298,2.092,6.298,2.092c-4.652-9.994-13.043-6.96-13.043-6.96l-0.013,0.148l-0.013-0.148
		c0,0-8.39-3.034-13.043,6.96c0,0,4.992-2.684,6.298-2.092c0,0-4.401,2.01-7.672,6.536c0,0,5.7-2.841,9.287-1.866
		c2.783,0.757,4.501-0.803,5.274-1.791c1.03,0.902,2.988,2.264,5.012,1.791c3.62-0.847,9.287,1.866,9.287,1.866
		C43.483,55.659,39.082,53.65,39.082,53.65z"/>
</g>
</svg>
