<?xml version="1.0" encoding="iso-8859-1"?>
<!-- Generator: Adobe Illustrator 17.0.0, SVG Export Plug-In . SVG Version: 6.00 Build 0)  -->
<!DOCTYPE svg PUBLIC "-//W3C//DTD SVG 1.1//EN" "http://www.w3.org/Graphics/SVG/1.1/DTD/svg11.dtd">
<svg version="1.1" id="Capa_1" xmlns="http://www.w3.org/2000/svg" xmlns:xlink="http://www.w3.org/1999/xlink" x="0px" y="0px"
	 width="64px" height="64px" viewBox="0 0 64 64" style="enable-background:new 0 0 64 64;" xml:space="preserve">
<g>
	<path d="M52.837,21.184c-1.059,7.058-10.941,8.47-10.941,6.176c0-2.294,0.706-15.529-3-16.587s-2.294-6.529-4.235-7.058
		c-1.463-0.399-3.123-0.302-3.854-0.229c-0.731-0.072-2.392-0.17-3.854,0.229c-1.941,0.529-0.529,6-4.235,7.058s-3,14.293-3,16.587
		c0,2.294-9.882,0.882-10.941-6.176c-1.059-7.058-9.882,10.058-1.235,16.94c7.833,6.235,20.88,6.242,23.265,6.188
		c2.385,0.054,15.432,0.047,23.265-6.188C62.719,31.242,53.896,14.126,52.837,21.184z M23.071,25.111
		c-0.731,0-1.323-0.593-1.323-1.323s0.593-1.323,1.323-1.323c0.731,0,1.323,0.593,1.323,1.323S23.802,25.111,23.071,25.111z
		 M27.835,26.169c-0.731,0-1.323-0.593-1.323-1.323c0-0.731,0.593-1.323,1.323-1.323c0.731,0,1.323,0.593,1.323,1.323
		C29.159,25.577,28.566,26.169,27.835,26.169z M34.188,26.169c-0.731,0-1.323-0.593-1.323-1.323c0-0.731,0.593-1.323,1.323-1.323
		s1.323,0.593,1.323,1.323C35.511,25.577,34.919,26.169,34.188,26.169z M38.952,25.111c-0.731,0-1.323-0.593-1.323-1.323
		s0.593-1.323,1.323-1.323c0.731,0,1.323,0.593,1.323,1.323S39.683,25.111,38.952,25.111z"/>
	<path d="M46.689,52.66c0.061,5.418-3.124,5.098-4.664,4.629c-1.578-0.77-4.461-2.412-7.948-3.127
		c-0.558,1.254-1.809,2.131-3.27,2.131c-1.444,0-2.68-0.859-3.247-2.089c-2.966,0.674-5.498,2.061-7.159,2.774l0,0
		c0,0-0.006,0.003-0.012,0.006c-0.081,0.035-0.151,0.068-0.228,0.102c-1.065,0.443-5.306,1.817-5.236-4.425
		c0.081-7.137-1.775-13.834-2.017-3.909s0.965,10.557,8.069,10.388l-0.005-0.018c2.291,0.082,5.846-0.188,9.849-0.188
		c3.986,0,7.528,0.268,9.821,0.189l-0.004,0.017c7.104,0.168,8.311-0.463,8.069-10.388S46.608,45.523,46.689,52.66z"/>
</g>
</svg>
