<?xml version="1.0" encoding="iso-8859-1"?>
<!-- Generator: Adobe Illustrator 17.0.0, SVG Export Plug-In . SVG Version: 6.00 Build 0)  -->
<!DOCTYPE svg PUBLIC "-//W3C//DTD SVG 1.1//EN" "http://www.w3.org/Graphics/SVG/1.1/DTD/svg11.dtd">
<svg version="1.1" id="Capa_1" xmlns="http://www.w3.org/2000/svg" xmlns:xlink="http://www.w3.org/1999/xlink" x="0px" y="0px"
	 width="64px" height="64px" viewBox="0 0 64 64" style="enable-background:new 0 0 64 64;" xml:space="preserve">
<g>
	<path d="M14.169,35.544c3.448,0.136,3.434-5.208,0-5.344c-4.91-0.194-9.985,1.679-10.378,7.203
		c-0.297,4.182,3.455,8.282,7.451,8.899c5.367,0.829,9.977-3.531,11.253-8.469c0.621-2.404,0.419-4.934,0.619-7.385
		c0.208-2.557,3.279-1.865,5.128-1.674c3.427,0.355,3.393-4.993,0-5.344c-4.234-0.438-8.434,0.21-10.055,4.613
		c-1.305,3.546,0.242,7.454-1.897,10.808c-1.593,2.498-4.908,3.041-6.589,0.47C7.556,36.04,11.76,35.449,14.169,35.544z"/>
	<path d="M48.21,38.851c-2.139-3.354-0.591-7.262-1.897-10.808c-1.621-4.403-5.821-5.051-10.055-4.613
		c-3.393,0.351-3.427,5.699,0,5.344c1.849-0.191,4.92-0.883,5.128,1.674c0.2,2.451-0.003,4.98,0.619,7.385
		c1.276,4.938,5.886,9.298,11.253,8.469c3.995-0.617,7.748-4.717,7.451-8.899c-0.393-5.524-5.468-7.397-10.378-7.203
		c-3.434,0.136-3.447,5.48,0,5.344c2.409-0.095,6.613,0.496,4.468,3.777C53.118,41.893,49.804,41.349,48.21,38.851z"/>
</g>
</svg>
