<?xml version="1.0" encoding="iso-8859-1"?>
<!-- Generator: Adobe Illustrator 17.0.0, SVG Export Plug-In . SVG Version: 6.00 Build 0)  -->
<!DOCTYPE svg PUBLIC "-//W3C//DTD SVG 1.1//EN" "http://www.w3.org/Graphics/SVG/1.1/DTD/svg11.dtd">
<svg version="1.1" id="Capa_1" xmlns="http://www.w3.org/2000/svg" xmlns:xlink="http://www.w3.org/1999/xlink" x="0px" y="0px"
	 width="64px" height="64px" viewBox="0 0 64 64" style="enable-background:new 0 0 64 64;" xml:space="preserve">
<g>
	<path d="M30.189,40.47c0.84-0.016,1.438-0.395,1.811-0.925c0.374,0.53,0.972,0.909,1.811,0.925
		c6.015,0.112,32.759,4.764,27.485-9.474c-2.909-7.853-14.688-10.15-15.167,0.207c-0.14,3.026,4.553,3.013,4.693,0
		c0.271-5.868,7.239,0.202,6.252,2.961c-1.22,3.411-8.169,2.73-10.871,2.552c-4.133-0.272-8.248-0.861-12.392-0.937
		c-0.84-0.016-1.438,0.34-1.811,0.856c-0.373-0.515-0.971-0.871-1.811-0.856c-4.144,0.077-8.259,0.666-12.392,0.937
		c-2.702,0.178-9.651,0.859-10.871-2.552c-0.987-2.758,5.981-8.829,6.252-2.961c0.139,3.013,4.832,3.026,4.693,0
		c-0.478-10.356-12.258-8.06-15.167-0.207C-2.57,45.234,24.174,40.582,30.189,40.47z"/>
</g>
</svg>
