<?xml version="1.0" encoding="iso-8859-1"?>
<!-- Generator: Adobe Illustrator 17.0.0, SVG Export Plug-In . SVG Version: 6.00 Build 0)  -->
<!DOCTYPE svg PUBLIC "-//W3C//DTD SVG 1.1//EN" "http://www.w3.org/Graphics/SVG/1.1/DTD/svg11.dtd">
<svg version="1.1" id="Capa_1" xmlns="http://www.w3.org/2000/svg" xmlns:xlink="http://www.w3.org/1999/xlink" x="0px" y="0px"
	 width="64px" height="64px" viewBox="0 0 64 64" style="enable-background:new 0 0 64 64;" xml:space="preserve">
<g>
	<path d="M54.718,20.233c-7.183-1.533-14.369,5.761-10.007,12.488c3.919,6.044,12.129,2.195,10.926-4.494
		c-0.54-3.002-5.102-1.726-4.566,1.259c0.498,2.769-5.547-0.09-2.289-2.99c1.401-1.247,3.696-2.209,5.59-1.503
		c3.919,1.461,3.764,7.045,2.469,10.243c-3.572,8.818-15.416,5.442-22.742,5.299c-0.872-0.017-1.485,0.362-1.859,0.906
		c-0.374-0.544-0.987-0.923-1.859-0.906c-7.326,0.143-19.17,3.518-22.742-5.299c-1.296-3.198-1.45-8.782,2.469-10.243
		c1.894-0.706,4.189,0.256,5.59,1.503c3.259,2.9-2.787,5.758-2.289,2.99c0.537-2.985-4.026-4.261-4.566-1.259
		c-1.203,6.689,7.007,10.538,10.926,4.494c4.362-6.727-2.824-14.02-10.007-12.488c-8.619,1.839-8.806,12.274-5.599,18.72
		c4.771,9.587,17.815,6.481,26.217,6.318c0.871-0.017,1.485-0.421,1.859-0.981c0.374,0.559,0.988,0.964,1.859,0.981
		c8.403,0.164,21.446,3.27,26.217-6.318C63.525,32.507,63.337,22.072,54.718,20.233z"/>
</g>
</svg>
