<?xml version="1.0" encoding="iso-8859-1"?>
<!-- Generator: Adobe Illustrator 17.0.0, SVG Export Plug-In . SVG Version: 6.00 Build 0)  -->
<!DOCTYPE svg PUBLIC "-//W3C//DTD SVG 1.1//EN" "http://www.w3.org/Graphics/SVG/1.1/DTD/svg11.dtd">
<svg version="1.1" id="Capa_1" xmlns="http://www.w3.org/2000/svg" xmlns:xlink="http://www.w3.org/1999/xlink" x="0px" y="0px"
	 width="64px" height="64px" viewBox="0 0 64 64" style="enable-background:new 0 0 64 64;" xml:space="preserve">
<g>
	<path d="M59.775,37.67c-10.731-16.9-20.887-16.846-20.887-16.846s-4.491-0.543-5.744,5.744c-2.403,12.062,4.152,8.407,4.152,8.407
		c6.594-4.176,13.789,1.877,20.456,6.203C64.419,45.505,59.775,37.67,59.775,37.67z"/>
	<path d="M4.923,41.178c6.667-4.327,13.862-10.379,20.456-6.203c0,0,6.555,3.655,4.152-8.407c-1.252-6.286-5.744-5.744-5.744-5.744
		S13.632,20.77,2.901,37.67C2.901,37.67-1.743,45.505,4.923,41.178z"/>
</g>
</svg>
