<?xml version="1.0" encoding="iso-8859-1"?>
<!-- Generator: Adobe Illustrator 17.0.0, SVG Export Plug-In . SVG Version: 6.00 Build 0)  -->
<!DOCTYPE svg PUBLIC "-//W3C//DTD SVG 1.1//EN" "http://www.w3.org/Graphics/SVG/1.1/DTD/svg11.dtd">
<svg version="1.1" id="Capa_1" xmlns="http://www.w3.org/2000/svg" xmlns:xlink="http://www.w3.org/1999/xlink" x="0px" y="0px"
	 width="64px" height="64px" viewBox="0 0 64 64" style="enable-background:new 0 0 64 64;" xml:space="preserve">
<g>
	<path d="M3.417,29.468c0,7.79,6.315,14.104,14.104,14.104c7.672,0,14.086,0,14.086-13.755c-2.587,3.101-6.478,5.076-10.832,5.076
		c-7.789,0-14.104-6.315-14.104-14.104c0-0.118,0.015-0.232,0.018-0.349C4.648,22.886,3.417,26.032,3.417,29.468z"/>
	<path d="M57.628,20.439c0.003,0.117,0.018,0.231,0.018,0.349c0,7.789-6.315,14.104-14.104,14.104
		c-4.354,0-8.245-1.975-10.832-5.076c0,13.755,6.415,13.755,14.086,13.755c7.79,0,14.104-6.315,14.104-14.104
		C60.9,26.032,59.669,22.886,57.628,20.439z"/>
</g>
</svg>
