<?xml version="1.0" encoding="iso-8859-1"?>
<!-- Generator: Adobe Illustrator 17.0.0, SVG Export Plug-In . SVG Version: 6.00 Build 0)  -->
<!DOCTYPE svg PUBLIC "-//W3C//DTD SVG 1.1//EN" "http://www.w3.org/Graphics/SVG/1.1/DTD/svg11.dtd">
<svg version="1.1" id="Capa_1" xmlns="http://www.w3.org/2000/svg" xmlns:xlink="http://www.w3.org/1999/xlink" x="0px" y="0px"
	 width="64px" height="64px" viewBox="0 0 64 64" style="enable-background:new 0 0 64 64;" xml:space="preserve">
<g>
	<path d="M21.998,44.899c3.924,0,7.105-3.181,7.105-7.105s-3.181-7.105-7.105-7.105c-0.275,0-0.545,0.019-0.812,0.05
		c-2.874,0.122-12.645,0.056-16.875-6.097C-0.678,17.386,0.682,44.899,21.998,44.899z"/>
	<path d="M58.592,24.642c-4.23,6.153-14.001,6.219-16.875,6.097c-0.267-0.03-0.537-0.05-0.812-0.05
		c-3.924,0-7.105,3.181-7.105,7.105s3.181,7.105,7.105,7.105C62.22,44.899,63.58,17.386,58.592,24.642z"/>
</g>
</svg>
