<?xml version="1.0" encoding="iso-8859-1"?>
<!-- Generator: Adobe Illustrator 17.0.0, SVG Export Plug-In . SVG Version: 6.00 Build 0)  -->
<!DOCTYPE svg PUBLIC "-//W3C//DTD SVG 1.1//EN" "http://www.w3.org/Graphics/SVG/1.1/DTD/svg11.dtd">
<svg version="1.1" id="Capa_1" xmlns="http://www.w3.org/2000/svg" xmlns:xlink="http://www.w3.org/1999/xlink" x="0px" y="0px"
	 width="64px" height="64px" viewBox="0 0 64 64" style="enable-background:new 0 0 64 64;" xml:space="preserve">
<g>
	<path d="M21.326,38.807c5.756,1.565,9.307-1.66,10.907-3.703c2.13,1.865,6.18,4.682,10.363,3.703
		c7.486-1.751,19.205,3.858,19.205,3.858C55.037,33.305,45.936,29.15,45.936,29.15c2.699-1.224,13.023,4.325,13.023,4.325
		c-9.621-20.667-26.971-14.393-26.971-14.393l-0.028,0.307l-0.028-0.307c0,0-17.35-6.274-26.971,14.393
		c0,0,10.324-5.55,13.023-4.325c0,0-9.101,4.156-15.864,13.515C2.121,42.665,13.907,36.79,21.326,38.807z"/>
</g>
</svg>
