<?xml version="1.0" encoding="iso-8859-1"?>
<!-- Generator: Adobe Illustrator 17.0.0, SVG Export Plug-In . SVG Version: 6.00 Build 0)  -->
<!DOCTYPE svg PUBLIC "-//W3C//DTD SVG 1.1//EN" "http://www.w3.org/Graphics/SVG/1.1/DTD/svg11.dtd">
<svg version="1.1" id="Capa_1" xmlns="http://www.w3.org/2000/svg" xmlns:xlink="http://www.w3.org/1999/xlink" x="0px" y="0px"
	 width="64px" height="64px" viewBox="0 0 64 64" style="enable-background:new 0 0 64 64;" xml:space="preserve">
<g>
	<path d="M52.832,25.136c-0.982-1.753-2.935-1.263-3.876,0.03c-0.918-0.766-2.127-0.578-2.977,0.085
		c-1.191-0.658-2.836-0.167-3.502,0.947c-0.553-0.298-1.197-0.385-1.795-0.301c-0.66-1.298-2.319-1.591-3.484-1.016
		c-0.805-0.893-2.325-0.93-3.357-0.224c-0.538-0.432-1.237-0.642-1.903-0.614c-0.665-0.028-1.365,0.182-1.903,0.614
		c-1.032-0.706-2.552-0.669-3.357,0.224c-1.164-0.576-2.824-0.282-3.484,1.016c-0.598-0.083-1.242,0.003-1.795,0.301
		c-0.666-1.114-2.311-1.605-3.502-0.947c-0.85-0.663-2.059-0.852-2.977-0.085c-0.942-1.293-2.894-1.783-3.876-0.03
		c-2.79,4.98-5.836,9.808-8.724,14.73c-1.511,2.575,1.926,5.289,3.709,3.371c1.009,0.944,2.665,1.16,3.619-0.333
		c0.195-0.305,0.379-0.616,0.571-0.922c-0.018,0.047-0.038,0.092-0.056,0.139c-1.137,3.01,3.546,4.725,4.683,1.718
		c0.913-2.418,1.945-4.785,2.993-7.146c-0.574,1.826-1.184,3.641-1.837,5.445c-0.944,2.606,2.399,4.234,4.044,2.7
		c1.196,1.168,3.434,1.242,4.026-0.802c0.447-1.544,0.888-3.089,1.31-4.639c-0.215,1.932-0.483,3.861-0.838,5.783
		c-0.412,2.231,4.564,2.622,4.972,0.412c0.093-0.501,0.172-1.003,0.253-1.505c0.06,0.088,0.124,0.172,0.194,0.251
		c0.426,0.69,1.189,0.98,1.975,0.938c0.786,0.042,1.55-0.248,1.975-0.938c0.07-0.079,0.134-0.163,0.194-0.251
		c0.081,0.502,0.161,1.004,0.253,1.505c0.408,2.21,5.384,1.819,4.972-0.412c-0.355-1.923-0.623-3.851-0.838-5.783
		c0.422,1.549,0.863,3.095,1.31,4.639c0.592,2.044,2.83,1.97,4.026,0.802c1.645,1.534,4.988-0.095,4.044-2.7
		c-0.654-1.803-1.263-3.619-1.837-5.445c1.048,2.361,2.079,4.728,2.993,7.146c1.136,3.007,5.82,1.292,4.683-1.718
		c-0.018-0.047-0.038-0.092-0.056-0.139c0.192,0.306,0.376,0.617,0.571,0.922c0.954,1.493,2.61,1.276,3.619,0.333
		c1.784,1.917,5.221-0.796,3.709-3.371C58.668,34.944,55.622,30.116,52.832,25.136z"/>
</g>
</svg>
