<?xml version="1.0" encoding="iso-8859-1"?>
<!-- Generator: Adobe Illustrator 17.0.0, SVG Export Plug-In . SVG Version: 6.00 Build 0)  -->
<!DOCTYPE svg PUBLIC "-//W3C//DTD SVG 1.1//EN" "http://www.w3.org/Graphics/SVG/1.1/DTD/svg11.dtd">
<svg version="1.1" id="Capa_1" xmlns="http://www.w3.org/2000/svg" xmlns:xlink="http://www.w3.org/1999/xlink" x="0px" y="0px"
	 width="64px" height="64px" viewBox="0 0 64 64" style="enable-background:new 0 0 64 64;" xml:space="preserve">
<g>
	<path d="M57.065,23.034c-1.105,0-2.08,0.533-2.702,1.35c-0.384-4.465-1.362-11.556-3.803-15.256
		C46.828,3.47,38.74,5.167,38.74,5.167s-3.111-0.239-3.111,4.934c0,2.278-2.51,2.562-3.469,2.588c-0.01,0-0.029,0.001-0.043,0.001
		c-0.043,0.001-0.082,0.001-0.117,0.001c-0.035,0-0.074,0-0.117-0.001c-0.013,0-0.033,0-0.043-0.001
		c-0.959-0.026-3.469-0.31-3.469-2.588c0-5.173-3.111-4.934-3.111-4.934s-8.088-1.697-11.821,3.96
		c-2.441,3.7-3.419,10.791-3.803,15.256c-0.621-0.817-1.596-1.349-2.701-1.349c-1.879,0-3.401,1.523-3.401,3.401
		c0,8.472,21.789,9.13,28.467,9.13c6.679,0,28.467-0.659,28.467-9.13C60.467,24.557,58.944,23.034,57.065,23.034z M11.232,22.118
		c0,0,12.016,1.69,20.932,1.7c8.779-0.01,20.611-1.7,20.611-1.7c0.156,1.366,0.282,2.713,0.372,3.745
		c-2.564,1.232-9.828,2.9-21.148,2.9c-11.317,0-18.579-1.667-21.145-2.899C10.945,24.832,11.073,23.485,11.232,22.118z"/>
	<path d="M30.487,43.994l-0.544-0.041c0,0-2.72-0.432-4.367-1.989c-1.111-1.051-2.254-1.11-3.402-0.749
		c-3.424,1.618-5.606,4.063-5.606,6.8c0,2.873,0.005,4.457,1.391,5.333l0.875-0.875l1.59,1.59l1.59-1.59l1.884,1.884l1.884-1.884
		l1.95,1.95c0.114,0.001,0.221,0.002,0.337,0.002l1.952-1.952l1.957,1.957c0.009,0,0.016,0,0.025,0c0.184,0,0.356,0,0.535,0
		l1.957-1.957l1.949,1.949c0.049,0,0.098-0.001,0.146-0.001l1.948-1.948l1.805,1.805l1.805-1.805l1.511,1.511l1.511-1.511
		l0.875,0.875c1.387-0.876,1.391-2.46,1.391-5.333c0-2.356-1.619-4.494-4.252-6.076c-1.686-0.925-3.387-1.519-5.019,0.024
		c-0.881,0.833-2.065,1.342-2.98,1.637c-0.282,0.096-0.577,0.178-0.883,0.248c-0.122,0.029-0.223,0.051-0.304,0.067
		c-0.036,0.007-0.072,0.015-0.108,0.021c-0.056,0.01-0.093,0.017-0.093,0.017l-0.028,0.002c-0.563,0.096-1.155,0.151-1.769,0.151
		c-0.053,0-0.104-0.004-0.157-0.005l-0.031,0.002V44.1C31.359,44.092,30.916,44.056,30.487,43.994z"/>
</g>
</svg>
