<?xml version="1.0" encoding="iso-8859-1"?>
<!-- Generator: Adobe Illustrator 17.0.0, SVG Export Plug-In . SVG Version: 6.00 Build 0)  -->
<!DOCTYPE svg PUBLIC "-//W3C//DTD SVG 1.1//EN" "http://www.w3.org/Graphics/SVG/1.1/DTD/svg11.dtd">
<svg version="1.1" id="Capa_1" xmlns="http://www.w3.org/2000/svg" xmlns:xlink="http://www.w3.org/1999/xlink" x="0px" y="0px"
	 width="64px" height="64px" viewBox="0 0 64 64" style="enable-background:new 0 0 64 64;" xml:space="preserve">
<g>
	<path d="M32,27.203c5.318,0,22.669-0.525,22.669-7.271c0-1.496-1.213-2.709-2.709-2.709c-0.88,0-1.657,0.424-2.151,1.075
		c-0.306-3.555-1.084-9.202-3.029-12.149c-2.973-4.505-9.413-3.154-9.413-3.154s-2.477-0.19-2.477,3.929
		c0,1.814-1.999,2.041-2.763,2.061c-0.008,0-0.023,0-0.034,0.001C32.059,8.987,32.028,8.988,32,8.988c-0.028,0-0.059,0-0.093-0.001
		c-0.011,0-0.026,0-0.034-0.001c-0.764-0.021-2.763-0.247-2.763-2.061c0-4.119-2.477-3.929-2.477-3.929s-6.441-1.352-9.413,3.154
		c-1.944,2.947-2.723,8.594-3.029,12.149c-0.495-0.65-1.271-1.075-2.151-1.075c-1.496,0-2.709,1.213-2.709,2.709
		C9.331,26.679,26.682,27.203,32,27.203z M15.462,16.495c0,0,9.569,1.346,16.669,1.354c6.991-0.008,16.414-1.354,16.414-1.354
		c0.124,1.089,0.225,2.16,0.296,2.982c-2.042,0.981-7.826,2.309-16.84,2.309c-9.012,0-14.795-1.328-16.839-2.308
		C15.233,18.655,15.335,17.584,15.462,16.495z"/>
	<path d="M14.67,42.969c1.498,1.872,4.206,0,4.206,0s0.288,11.234,2.285,12.732c1.997,1.498,2.372-2.996,2.372-2.996
		s0.374,5.867,1.748,6.741s3.246-2.871,3.246-2.871s0.25,4.619,3.245,4.619c0.081,0,0.156-0.024,0.229-0.056
		c0.072,0.032,0.147,0.056,0.228,0.056c2.996,0,3.245-4.619,3.245-4.619s1.872,3.745,3.246,2.871
		c1.373-0.874,1.748-6.741,1.748-6.741s0.374,4.494,2.372,2.996s2.285-12.732,2.285-12.732s2.708,1.872,4.206,0
		c1.37-1.712-3.271-5.308-4.077-5.912c1.046,0.298,1.612,0.608,1.612,0.608c0.422-5.235-4.985-6.701-7.966-7.112
		c-0.547-0.095-1.127-0.148-1.73-0.156c-0.104-0.004-0.166-0.004-0.166-0.004c-2.074,0-3.903,0.548-5.003,1.384
		c-1.1-0.836-2.929-1.384-5.003-1.384c0,0-0.062,0.001-0.166,0.004c-0.603,0.009-1.183,0.062-1.73,0.156
		c-2.981,0.411-8.388,1.878-7.966,7.112c0,0,0.566-0.31,1.611-0.608C17.941,37.661,13.3,41.257,14.67,42.969z M26.127,36.807
		c2.487,0.438,4.586-1.154,5.873-1.992c1.287,0.838,3.386,2.429,5.873,1.992c1.688-0.297,3.164-0.337,4.412-0.252
		c-1.044,0.363-2.028,1.315-4.44,2.046c-4.119,1.248-5.617,0.125-5.617,0.125s-1.955,1.123-6.074-0.125
		c-2.412-0.731-3.395-1.682-4.44-2.046C22.962,36.469,24.438,36.509,26.127,36.807z"/>
</g>
</svg>
