<?xml version="1.0" encoding="iso-8859-1"?>
<!-- Generator: Adobe Illustrator 17.0.0, SVG Export Plug-In . SVG Version: 6.00 Build 0)  -->
<!DOCTYPE svg PUBLIC "-//W3C//DTD SVG 1.1//EN" "http://www.w3.org/Graphics/SVG/1.1/DTD/svg11.dtd">
<svg version="1.1" id="Capa_1" xmlns="http://www.w3.org/2000/svg" xmlns:xlink="http://www.w3.org/1999/xlink" x="0px" y="0px"
	 width="64px" height="64px" viewBox="0 0 64 64" style="enable-background:new 0 0 64 64;" xml:space="preserve">
<g>
	<path d="M8.479,32.243c-0.033,0.292-0.054,0.587-0.054,0.888c0,4.339,3.517,7.856,7.856,7.856c1.463,0,3.566-0.703,5.712-1.788
		c1.391,4.164,5.456,7.169,10.088,7.169c4.632,0,8.555-3.005,9.946-7.169c2.145,1.085,4.249,1.788,5.712,1.788
		c4.339,0,7.856-3.517,7.856-7.856c0-0.301-0.021-0.596-0.054-0.888c3.319-0.144,5.972-2.86,5.972-6.215
		c0-3.447-2.795-6.242-6.242-6.242c-0.659,0-1.283,0.126-1.878,0.316c0.416,3.361-0.57,7.537-8.453,6.679
		c-2.886-0.314-5.109-0.358-6.828-0.24c-0.268,0.081-0.994,0.156-1.091,0.104c-3.8,0.474-4.785,2.08-5.012,2.727
		c-0.227-0.647-1.212-2.253-5.012-2.727c-0.096,0.052-0.823-0.022-1.091-0.104c-1.719-0.118-3.942-0.074-6.828,0.24
		c-7.883,0.858-8.869-3.318-8.453-6.679c-0.594-0.19-1.218-0.316-1.878-0.316c-3.447,0-6.242,2.794-6.242,6.242
		C2.506,29.383,5.159,32.099,8.479,32.243z"/>
</g>
</svg>
