<?xml version="1.0" encoding="iso-8859-1"?>
<!-- Generator: Adobe Illustrator 17.0.0, SVG Export Plug-In . SVG Version: 6.00 Build 0)  -->
<!DOCTYPE svg PUBLIC "-//W3C//DTD SVG 1.1//EN" "http://www.w3.org/Graphics/SVG/1.1/DTD/svg11.dtd">
<svg version="1.1" id="Capa_1" xmlns="http://www.w3.org/2000/svg" xmlns:xlink="http://www.w3.org/1999/xlink" x="0px" y="0px"
	 width="64px" height="64px" viewBox="0 0 64 64" style="enable-background:new 0 0 64 64;" xml:space="preserve">
<g>
	<path d="M10.248,42.248c2.98,5.214,4.47,4.023,5.214,0.149c0.745-3.874,3.824,1.327,6.108,1.788
		c2.029,0.409,4.321-1.993,6.555-2.635c2.228-0.64,3.861,1.428,3.872,1.441c0.012-0.013,1.646-2.081,3.874-1.441
		c2.235,0.642,4.531,3.068,6.555,2.635c2.154-0.461,5.363-5.661,6.108-1.788c0.745,3.874,2.235,5.065,5.214-0.149
		c2.98-5.214,6.704,12.366,6.853,2.831c0.099-6.314-3.723-14.72-6.316-19.677c-1.22-2.333-3.99-2.794-6.319-1.566
		c-6.085,3.208-10.284,1.833-12.843-0.079c-2.109-1.576-4.141-1.576-6.251,0c-2.56,1.912-6.759,3.287-12.845,0.079
		c-2.329-1.228-5.098-0.767-6.318,1.566c-2.593,4.958-6.414,13.363-6.316,19.677C3.544,54.614,7.269,37.034,10.248,42.248z"/>
</g>
</svg>
