<?xml version="1.0" encoding="iso-8859-1"?>
<!-- Generator: Adobe Illustrator 17.0.0, SVG Export Plug-In . SVG Version: 6.00 Build 0)  -->
<!DOCTYPE svg PUBLIC "-//W3C//DTD SVG 1.1//EN" "http://www.w3.org/Graphics/SVG/1.1/DTD/svg11.dtd">
<svg version="1.1" id="Capa_1" xmlns="http://www.w3.org/2000/svg" xmlns:xlink="http://www.w3.org/1999/xlink" x="0px" y="0px"
	 width="64px" height="64px" viewBox="0 0 64 64" style="enable-background:new 0 0 64 64;" xml:space="preserve">
<g>
	<path d="M51.132,33.946c0-2.748-2.248-5.234-5.878-7.03c0.088,1.849,0.237,3.891,0.474,6.189l0.021,0.21l-0.091,0.19
		c-0.094,0.197-2.443,4.816-14.608,4.816c-0.414,0-0.75-0.336-0.75-0.75c0-0.022,0.011-0.041,0.013-0.063
		c0.033-0.379,0.34-0.678,0.726-0.685c0.004,0,0.008-0.002,0.012-0.002c0.548,0,1.067-0.013,1.573-0.031
		c8.534-0.31,11.085-3.098,11.586-3.789c-0.256-2.528-0.411-4.769-0.49-6.767c-0.349-8.826,0.804-12.837,1.484-15.197
		c0.601-2.086,0.693-2.407-0.751-3.852c-2.746-2.746-8.654-3.537-11.828-3.763c-0.46-0.033-0.86-0.054-1.188-0.067
		c-0.544-0.022-0.878-0.023-0.923-0.023l0,0.005c-3.482-0.03-10.349,0.319-13.348,3.317c-3.689,3.689,1.258,2.761,0.491,20.013
		c-3.942,1.812-6.425,4.397-6.425,7.277c0,5.478,8.932,9.919,19.951,9.919C42.199,43.865,51.132,39.424,51.132,33.946z
		 M18.222,10.68c0.176-0.375,0.621-0.537,0.998-0.36c0.027,0.013,0.664,0.303,1.758,0.679c1.988,0.682,5.498,1.64,9.681,1.733
		c0.64,0.014,1.295,0.008,1.963-0.023c2.597-0.119,5.382-0.61,8.18-1.71c0.524-0.206,1.047-0.426,1.571-0.676
		c0.373-0.181,0.822-0.021,1,0.353c0.179,0.374,0.021,0.821-0.353,1c-3.569,1.709-7.136,2.421-10.398,2.572
		c-0.466,0.022-0.925,0.032-1.378,0.032c-0.19,0-0.374-0.008-0.561-0.012c-6.736-0.125-11.779-2.438-12.102-2.59
		C18.207,11.5,18.046,11.054,18.222,10.68z"/>
	<path d="M45.147,53.341c-1.774-1.242-1.471-1.197-1.471-1.197l-0.043-0.021c0.675,0.151,0.987,0.045-0.37-0.949
		c-0.573-0.42-1.198-0.77-1.828-1.066c0.251-0.136,0.174-0.329-0.69-0.601c-2.431-0.767-4.993-0.912-4.993-0.912l0.022,0.011
		c-1.63-0.11-3.203,0.174-4.595,0.802c-1.392-0.628-2.965-0.912-4.595-0.802l0.022-0.011c0,0-2.562,0.145-4.993,0.912
		c-0.864,0.273-0.941,0.465-0.69,0.601c-0.63,0.296-1.255,0.646-1.828,1.066c-1.356,0.994-1.045,1.1-0.37,0.949l-0.043,0.021
		c0,0,0.303-0.044-1.47,1.197c-0.751,0.526-0.35,0.834,0.408,0.919c-0.226,0.385-0.437,0.778-0.614,1.183
		c-0.19,0.435-0.001,0.984,0.402,1.165c0.208,0.094,0.425,0.17,0.641,0.248c-0.207,0.403-0.111,0.832,0.772,1.16
		c1.089,0.405,2.099-0.037,2.858-0.603c0.032-0.001,0.065-0.003,0.098-0.005c-0.506,0.702-0.72,1.393,0.506,1.3
		c1.45-0.11,3.083-1.506,4.159-2.603c0.06-0.032,0.117-0.069,0.177-0.102c-0.495,0.69-0.788,1.343,0.25,0.952
		c1.938-0.73,3.925-4.931,3.925-4.931l-0.008,0.002c0.14-0.224,0.268-0.454,0.392-0.685c0.124,0.232,0.252,0.461,0.392,0.685
		l-0.008-0.002c0,0,1.987,4.201,3.925,4.931c1.039,0.392,0.745-0.262,0.25-0.952c0.06,0.033,0.117,0.07,0.177,0.102
		c1.075,1.097,2.709,2.493,4.159,2.603c1.226,0.093,1.011-0.598,0.506-1.3c0.032,0.001,0.065,0.004,0.098,0.005
		c0.759,0.566,1.769,1.008,2.858,0.603c0.883-0.328,0.979-0.758,0.772-1.16c0.216-0.078,0.433-0.154,0.641-0.248
		c0.404-0.182,0.593-0.73,0.402-1.165c-0.177-0.405-0.388-0.798-0.614-1.183C45.497,54.175,45.898,53.867,45.147,53.341z"/>
</g>
</svg>
