<?xml version="1.0" encoding="iso-8859-1"?>
<!-- Generator: Adobe Illustrator 17.0.0, SVG Export Plug-In . SVG Version: 6.00 Build 0)  -->
<!DOCTYPE svg PUBLIC "-//W3C//DTD SVG 1.1//EN" "http://www.w3.org/Graphics/SVG/1.1/DTD/svg11.dtd">
<svg version="1.1" id="Capa_1" xmlns="http://www.w3.org/2000/svg" xmlns:xlink="http://www.w3.org/1999/xlink" x="0px" y="0px"
	 width="64px" height="64px" viewBox="0 0 64 64" style="enable-background:new 0 0 64 64;" xml:space="preserve">
<g>
	<path d="M57.741,46.797c3.284-6.079,4.366-22.033-1.599-26.488c-5.965-4.455-15.847-5.069-15.847-5.069
		c-2.981-0.524-5.721,0.383-7.307,1.771c-1.586-1.387-4.326-2.295-7.307-1.771c0,0-9.882,0.614-15.847,5.069
		C3.868,24.765,4.95,40.719,8.234,46.797c3.284,6.079,14.512,5.154,12.487-4.06c-2.025-9.214-2.329-17.75,8.103-19.371
		c1.912-0.297,3.266-0.804,4.164-1.423c0.898,0.62,2.252,1.126,4.164,1.423c10.432,1.621,10.128,10.157,8.103,19.371
		C43.229,51.952,54.457,52.876,57.741,46.797z"/>
</g>
</svg>
