<?xml version="1.0" encoding="iso-8859-1"?>
<!-- Generator: Adobe Illustrator 17.0.0, SVG Export Plug-In . SVG Version: 6.00 Build 0)  -->
<!DOCTYPE svg PUBLIC "-//W3C//DTD SVG 1.1//EN" "http://www.w3.org/Graphics/SVG/1.1/DTD/svg11.dtd">
<svg version="1.1" id="Capa_1" xmlns="http://www.w3.org/2000/svg" xmlns:xlink="http://www.w3.org/1999/xlink" x="0px" y="0px"
	 width="64px" height="64px" viewBox="0 0 64 64" style="enable-background:new 0 0 64 64;" xml:space="preserve">
<g>
	<path d="M4.597,35.998l-0.011,0.009c0.047,0.016,0.091,0.03,0.138,0.046c0.076,0.026,0.15,0.05,0.226,0.076
		c32.824,11.21,24.747-14.352,23.834-11.567c-0.71,2.167-2.307,2.863-2.307,2.863l-15.555,4.95c0.103-0.65,0.081-1.329-0.11-2.003
		c-0.706-2.491-3.298-3.937-5.788-3.231c-2.491,0.706-3.937,3.298-3.231,5.788C2.208,34.394,3.282,35.481,4.597,35.998z"/>
	<path d="M58.976,27.141c-2.491-0.706-5.082,0.741-5.788,3.231c-0.191,0.674-0.213,1.353-0.11,2.003l-15.555-4.95
		c0,0-1.597-0.696-2.307-2.863c-0.912-2.786-8.989,22.777,23.834,11.567c0.076-0.026,0.149-0.049,0.226-0.076
		c0.047-0.016,0.091-0.03,0.138-0.046l-0.011-0.009c1.315-0.517,2.39-1.604,2.805-3.069C62.914,30.438,61.467,27.847,58.976,27.141z
		"/>
</g>
</svg>
