<?xml version="1.0" encoding="iso-8859-1"?>
<!-- Generator: Adobe Illustrator 17.0.0, SVG Export Plug-In . SVG Version: 6.00 Build 0)  -->
<!DOCTYPE svg PUBLIC "-//W3C//DTD SVG 1.1//EN" "http://www.w3.org/Graphics/SVG/1.1/DTD/svg11.dtd">
<svg version="1.1" id="Capa_1" xmlns="http://www.w3.org/2000/svg" xmlns:xlink="http://www.w3.org/1999/xlink" x="0px" y="0px"
	 width="64px" height="64px" viewBox="0 0 64 64" style="enable-background:new 0 0 64 64;" xml:space="preserve">
<g>
	<path d="M15.434,40.561c8.824,0,15.977-4.838,15.977-10.806c0-1.582-0.515-3.079-1.417-4.433c-1.538,2.665-7.944,4.665-15.62,4.665
		c-5.253,0-9.913,3.198-12.825,5.1C4.296,38.354,9.48,40.561,15.434,40.561z"/>
	<path d="M49.627,29.987c-7.676,0-14.082-2-15.62-4.665c-0.903,1.354-1.417,2.852-1.417,4.433c0,5.968,7.153,10.806,15.977,10.806
		c5.954,0,11.138-2.208,13.886-5.474C59.54,33.186,54.88,29.987,49.627,29.987z"/>
</g>
</svg>
