<?xml version="1.0" encoding="iso-8859-1"?>
<!-- Generator: Adobe Illustrator 17.0.0, SVG Export Plug-In . SVG Version: 6.00 Build 0)  -->
<!DOCTYPE svg PUBLIC "-//W3C//DTD SVG 1.1//EN" "http://www.w3.org/Graphics/SVG/1.1/DTD/svg11.dtd">
<svg version="1.1" id="Capa_1" xmlns="http://www.w3.org/2000/svg" xmlns:xlink="http://www.w3.org/1999/xlink" x="0px" y="0px"
	 width="64px" height="64px" viewBox="0 0 64 64" style="enable-background:new 0 0 64 64;" xml:space="preserve">
<g>
	<path d="M21.951,39.125c7.43-16.375,9.112-14.25,9.112-14.25s1.682-2.125,9.112,14.25C47.604,55.5,60.5,53.875,60.5,53.875
		c-11.214-5.125-21.307-30.5-15.139-24.25S56.154,33.5,56.154,33.5s-4.766,1.5-7.43-9S31.062,11.875,31.062,11.875
		S16.063,14,13.4,24.5s-7.43,9-7.43,9s4.626,2.375,10.794-3.875S12.839,48.75,1.625,53.875C1.625,53.875,14.521,55.5,21.951,39.125z
		"/>
</g>
</svg>
