<?xml version="1.0" encoding="iso-8859-1"?>
<!-- Generator: Adobe Illustrator 17.0.0, SVG Export Plug-In . SVG Version: 6.00 Build 0)  -->
<!DOCTYPE svg PUBLIC "-//W3C//DTD SVG 1.1//EN" "http://www.w3.org/Graphics/SVG/1.1/DTD/svg11.dtd">
<svg version="1.1" id="Capa_1" xmlns="http://www.w3.org/2000/svg" xmlns:xlink="http://www.w3.org/1999/xlink" x="0px" y="0px"
	 width="64px" height="64px" viewBox="0 0 64 64" style="enable-background:new 0 0 64 64;" xml:space="preserve">
<g>
	<path d="M3.659,29.163c2.444,3.055,6.862,0,6.862,0s0.47,18.329,3.728,20.773s3.87-4.888,3.87-4.888s0.611,9.572,2.851,10.998
		s5.295-4.684,5.295-4.684s0.407,7.535,5.295,7.535c0.132,0,0.254-0.039,0.373-0.091c0.118,0.052,0.24,0.091,0.372,0.091
		c4.888,0,5.295-7.535,5.295-7.535s3.055,6.11,5.295,4.684c2.24-1.426,2.851-10.998,2.851-10.998s0.611,7.332,3.87,4.888
		s3.728-20.773,3.728-20.773s4.418,3.055,6.862,0c2.224-2.781-5.283-8.619-6.65-9.646c1.705,0.487,2.628,0.992,2.628,0.992
		c0.688-8.541-8.133-10.933-12.996-11.604c-0.892-0.154-1.839-0.241-2.823-0.255c-0.17-0.006-0.271-0.007-0.271-0.007
		c-3.383,0-6.368,0.894-8.162,2.258c-1.795-1.364-4.779-2.258-8.162-2.258c0,0-0.101,0.001-0.271,0.007
		c-0.983,0.014-1.931,0.101-2.823,0.255C15.813,9.576,6.992,11.969,7.68,20.509c0,0,0.923-0.505,2.628-0.992
		C8.941,20.544,1.434,26.383,3.659,29.163z M22.35,19.108c4.058,0.714,7.482-1.883,9.582-3.25c2.1,1.367,5.524,3.964,9.582,3.25
		c2.755-0.485,5.163-0.55,7.199-0.411c-1.704,0.593-3.309,2.145-7.244,3.338c-6.721,2.037-9.165,0.204-9.165,0.204
		s-3.189,1.833-9.91-0.204c-3.935-1.192-5.54-2.745-7.244-3.338C17.187,18.558,19.596,18.623,22.35,19.108z"/>
</g>
</svg>
