<?xml version="1.0" encoding="iso-8859-1"?>
<!-- Generator: Adobe Illustrator 17.0.0, SVG Export Plug-In . SVG Version: 6.00 Build 0)  -->
<!DOCTYPE svg PUBLIC "-//W3C//DTD SVG 1.1//EN" "http://www.w3.org/Graphics/SVG/1.1/DTD/svg11.dtd">
<svg version="1.1" id="Capa_1" xmlns="http://www.w3.org/2000/svg" xmlns:xlink="http://www.w3.org/1999/xlink" x="0px" y="0px"
	 width="64px" height="64px" viewBox="0 0 64 64" style="enable-background:new 0 0 64 64;" xml:space="preserve">
<g>
	<path d="M3.584,32.62c0,0-0.001,0.018-0.002,0.026c-0.002,0.025-0.015,2.363,0.081,2.909c0.404,3.974,1.172,8.38,5.588,14.901
		c0,0,11.13,1.339,22.068,1.45l-0.015,0.011c0.247,0,0.481-0.004,0.724-0.005c0.243,0.001,0.477,0.005,0.724,0.005l-0.015-0.011
		c10.937-0.111,22.068-1.45,22.068-1.45c6.131-7.388,5.693-16.604,5.693-16.623c0.014-0.77-0.077-1.176-0.077-1.176
		c-0.8-6.252-7.621-11.135-15.919-11.135c-5.063,0-9.568,1.822-12.5,4.659c-2.932-2.837-7.437-4.659-12.5-4.659
		C11.218,21.522,4.406,26.386,3.584,32.62z"/>
</g>
</svg>
