<?xml version="1.0" encoding="iso-8859-1"?>
<!-- Generator: Adobe Illustrator 17.0.0, SVG Export Plug-In . SVG Version: 6.00 Build 0)  -->
<!DOCTYPE svg PUBLIC "-//W3C//DTD SVG 1.1//EN" "http://www.w3.org/Graphics/SVG/1.1/DTD/svg11.dtd">
<svg version="1.1" id="Capa_1" xmlns="http://www.w3.org/2000/svg" xmlns:xlink="http://www.w3.org/1999/xlink" x="0px" y="0px"
	 width="64px" height="64px" viewBox="0 0 64 64" style="enable-background:new 0 0 64 64;" xml:space="preserve">
<g>
	<path d="M32,44.558c14.32,0,25.929-7.549,25.929-16.861c0-3.646-1.786-7.02-4.812-9.778c0.754,2.359,1.173,4.841,1.173,7.37
		c0,7.653-8.019,13.608-19.5,14.481c-0.026,0.002-0.052,0.003-0.077,0.003c-0.518,0-0.956-0.399-0.996-0.924
		c-0.009-0.117,0.012-0.228,0.042-0.336c0.108-0.397,0.446-0.704,0.879-0.737c10.394-0.791,17.652-5.926,17.652-12.487
		c0-3.245-0.814-6.606-2.272-9.711C46.708,8.526,40.063,2.802,32,2.802S17.292,8.526,13.982,15.579
		c-1.458,3.105-2.272,6.466-2.272,9.71c0,2.673,1.24,5.195,3.587,7.294c0.291,0.26,0.383,0.651,0.288,1.004
		c-0.039,0.146-0.102,0.288-0.21,0.408c-0.368,0.411-0.999,0.447-1.412,0.078c-2.782-2.488-4.253-5.526-4.253-8.784
		c0-2.529,0.419-5.011,1.173-7.37c-3.026,2.758-4.812,6.132-4.812,9.778C6.071,37.01,17.68,44.558,32,44.558z"/>
	<path d="M26.433,56.881c2.358,0.526,4.347,0.053,5.567-0.954c1.22,1.007,3.21,1.48,5.567,0.954
		c5.362-1.196,8.523,0.552,8.523,0.552c0.4-6.291-4.725-8.053-7.551-8.547c-0.518-0.114-1.069-0.178-1.64-0.188
		c-0.099-0.004-0.157-0.005-0.157-0.005c-1.966,0-3.7,0.659-4.742,1.663c-1.043-1.004-2.777-1.663-4.742-1.663
		c0,0-0.059,0.001-0.157,0.005c-0.571,0.01-1.122,0.074-1.64,0.188c-2.826,0.494-7.951,2.256-7.551,8.547
		C17.909,57.433,21.071,55.685,26.433,56.881z"/>
</g>
</svg>
