<?xml version="1.0" encoding="iso-8859-1"?>
<!-- Generator: Adobe Illustrator 17.0.0, SVG Export Plug-In . SVG Version: 6.00 Build 0)  -->
<!DOCTYPE svg PUBLIC "-//W3C//DTD SVG 1.1//EN" "http://www.w3.org/Graphics/SVG/1.1/DTD/svg11.dtd">
<svg version="1.1" id="Capa_1" xmlns="http://www.w3.org/2000/svg" xmlns:xlink="http://www.w3.org/1999/xlink" x="0px" y="0px"
	 width="64px" height="64px" viewBox="0 0 64 64" style="enable-background:new 0 0 64 64;" xml:space="preserve">
<g>
	<path d="M13.246,45.103c7.348,2.637,15.06,0.447,18.691-4.874c3.632,5.321,11.343,7.512,18.691,4.874
		c8.495-3.049,13.276-11.387,10.679-18.623c-1.385-3.859-4.597-6.611-8.575-7.89c0.002,0.068,0.018,0.134,0.018,0.203
		c0,6.88-9.589,12.458-21.418,12.458c-11.69,0-21.175-5.45-21.397-12.218c-3.413,1.419-6.126,3.987-7.367,7.448
		C-0.029,33.716,4.752,42.054,13.246,45.103z"/>
</g>
</svg>
