<?xml version="1.0" encoding="iso-8859-1"?>
<!-- Generator: Adobe Illustrator 17.0.0, SVG Export Plug-In . SVG Version: 6.00 Build 0)  -->
<!DOCTYPE svg PUBLIC "-//W3C//DTD SVG 1.1//EN" "http://www.w3.org/Graphics/SVG/1.1/DTD/svg11.dtd">
<svg version="1.1" id="Capa_1" xmlns="http://www.w3.org/2000/svg" xmlns:xlink="http://www.w3.org/1999/xlink" x="0px" y="0px"
	 width="64px" height="64px" viewBox="0 0 64 64" style="enable-background:new 0 0 64 64;" xml:space="preserve">
<g>
	<path d="M16.778,25.445c-3.255,1.83-6.665,3.336-10.048,4.907c-1.733,0.805-2.154,3.265-1.257,4.796
		c1.032,1.762,3.063,2.062,4.796,1.257c3.383-1.571,6.793-3.077,10.048-4.907C24.256,29.283,20.723,23.227,16.778,25.445z"/>
	<path d="M56.774,30.352c-3.383-1.572-6.793-3.077-10.048-4.907c-3.945-2.218-7.478,3.838-3.538,6.053
		c3.255,1.83,6.665,3.336,10.048,4.907c1.733,0.805,3.763,0.505,4.796-1.257C58.927,33.617,58.506,31.157,56.774,30.352z"/>
</g>
</svg>
