<?xml version="1.0" encoding="iso-8859-1"?>
<!-- Generator: Adobe Illustrator 17.0.0, SVG Export Plug-In . SVG Version: 6.00 Build 0)  -->
<!DOCTYPE svg PUBLIC "-//W3C//DTD SVG 1.1//EN" "http://www.w3.org/Graphics/SVG/1.1/DTD/svg11.dtd">
<svg version="1.1" id="Capa_1" xmlns="http://www.w3.org/2000/svg" xmlns:xlink="http://www.w3.org/1999/xlink" x="0px" y="0px"
	 width="64px" height="64px" viewBox="0 0 64 64" style="enable-background:new 0 0 64 64;" xml:space="preserve">
<g>
	<path d="M51.951,34.55c0-2.748-2.248-5.234-5.879-7.03c0.088,1.849,0.236,3.891,0.474,6.19l0.021,0.21l-0.091,0.19
		c-0.094,0.197-2.443,4.816-14.608,4.816c-0.414,0-0.75-0.336-0.75-0.75c0-0.022,0.011-0.041,0.013-0.063
		c0.033-0.379,0.34-0.678,0.726-0.685c0.004,0,0.007-0.002,0.011-0.002c0.548,0,1.068-0.013,1.573-0.031
		c8.534-0.31,11.085-3.098,11.586-3.789c-0.256-2.528-0.411-4.769-0.49-6.767c-0.349-8.825,0.804-12.837,1.484-15.197
		c0.601-2.086,0.693-2.407-0.752-3.852c-2.744-2.743-8.653-3.534-11.828-3.761c-0.527-0.038-0.976-0.06-1.325-0.073
		c-0.459-0.017-0.74-0.019-0.785-0.019l0,0.006c-3.482-0.03-10.349,0.318-13.348,3.317c-3.689,3.689,1.258,2.761,0.491,20.013
		c-3.942,1.812-6.425,4.397-6.425,7.277c0,5.478,8.932,9.919,19.951,9.919S51.951,40.029,51.951,34.55z M19.041,11.284
		c0.176-0.374,0.621-0.536,0.998-0.36c0.026,0.013,0.663,0.304,1.757,0.679c1.987,0.682,5.499,1.641,9.682,1.734
		c0.64,0.014,1.295,0.008,1.963-0.023c2.597-0.119,5.382-0.611,8.18-1.711c0.523-0.206,1.047-0.426,1.57-0.676
		c0.375-0.18,0.823-0.021,1.001,0.353c0.179,0.374,0.021,0.821-0.353,1c-3.569,1.709-7.137,2.421-10.398,2.572
		c-0.466,0.022-0.925,0.032-1.378,0.032c-0.19,0-0.373-0.008-0.561-0.012c-6.736-0.125-11.779-2.438-12.102-2.59
		C19.025,12.104,18.865,11.658,19.041,11.284z"/>
	<path d="M32,49.294c-2.403-1.032-5.384-1.128-8.254-0.027c-3.086,1.185-5.342,3.484-6.346,6.084
		c2.486,1.26,5.702,1.459,8.788,0.274c2.63-1.01,4.65-2.833,5.813-4.958c1.163,2.125,3.183,3.948,5.813,4.958
		c3.086,1.185,6.301,0.986,8.788-0.274c-1.004-2.6-3.261-4.9-6.346-6.084C37.384,48.166,34.403,48.262,32,49.294z"/>
</g>
</svg>
