<?xml version="1.0" encoding="iso-8859-1"?>
<!-- Generator: Adobe Illustrator 17.0.0, SVG Export Plug-In . SVG Version: 6.00 Build 0)  -->
<!DOCTYPE svg PUBLIC "-//W3C//DTD SVG 1.1//EN" "http://www.w3.org/Graphics/SVG/1.1/DTD/svg11.dtd">
<svg version="1.1" id="Capa_1" xmlns="http://www.w3.org/2000/svg" xmlns:xlink="http://www.w3.org/1999/xlink" x="0px" y="0px"
	 width="64px" height="64px" viewBox="0 0 64 64" style="enable-background:new 0 0 64 64;" xml:space="preserve">
<g>
	<path d="M51.902,34.748c0-2.748-2.249-5.234-5.879-7.03c0.088,1.849,0.237,3.891,0.474,6.189l0.021,0.21l-0.091,0.19
		c-0.094,0.197-2.443,4.816-14.608,4.816c-0.414,0-0.75-0.336-0.75-0.75c0-0.022,0.011-0.041,0.013-0.063
		c0.033-0.379,0.339-0.679,0.726-0.685c0.004,0,0.008-0.002,0.012-0.002c0.548,0,1.067-0.013,1.573-0.031
		c8.535-0.31,11.085-3.098,11.586-3.789c-0.256-2.528-0.411-4.769-0.49-6.767c-0.349-8.826,0.804-12.837,1.484-15.197
		c0.601-2.086,0.693-2.407-0.751-3.852c-2.747-2.747-8.654-3.535-11.828-3.761c-0.527-0.038-0.977-0.059-1.326-0.072
		c-0.457-0.017-0.738-0.018-0.784-0.019l0,0.005c-3.482-0.03-10.349,0.318-13.348,3.317c-3.689,3.689,1.258,2.761,0.491,20.013
		C14.483,29.284,12,31.869,12,34.748c0,5.478,8.932,9.919,19.951,9.919C42.969,44.668,51.902,40.227,51.902,34.748z M18.992,11.481
		c0.176-0.375,0.622-0.538,0.998-0.36c0.027,0.013,0.664,0.304,1.758,0.679c1.988,0.682,5.498,1.64,9.681,1.734
		c0.64,0.014,1.295,0.008,1.963-0.023c2.597-0.119,5.381-0.611,8.179-1.711c0.524-0.206,1.048-0.426,1.571-0.677
		c0.374-0.182,0.822-0.021,1,0.353c0.179,0.374,0.021,0.821-0.353,1c-3.569,1.709-7.136,2.421-10.398,2.572
		c-0.466,0.022-0.925,0.032-1.378,0.032c-0.19,0-0.374-0.008-0.561-0.012c-6.736-0.126-11.779-2.438-12.102-2.59
		C18.977,12.302,18.816,11.856,18.992,11.481z"/>
	<path d="M29.836,51.973l-12.669,3.714c-0.413,0.121-0.399,0.219,0.031,0.219h12.606c0.43,0,0.779-0.349,0.779-0.779v-2.594
		C30.584,52.102,30.249,51.852,29.836,51.973z"/>
	<path d="M33.416,52.533v2.594c0,0.43,0.349,0.779,0.779,0.779h12.606c0.43,0,0.444-0.098,0.031-0.219l-12.669-3.714
		C33.751,51.852,33.416,52.102,33.416,52.533z"/>
</g>
</svg>
