<?xml version="1.0" encoding="iso-8859-1"?>
<!-- Generator: Adobe Illustrator 17.0.0, SVG Export Plug-In . SVG Version: 6.00 Build 0)  -->
<!DOCTYPE svg PUBLIC "-//W3C//DTD SVG 1.1//EN" "http://www.w3.org/Graphics/SVG/1.1/DTD/svg11.dtd">
<svg version="1.1" id="Capa_1" xmlns="http://www.w3.org/2000/svg" xmlns:xlink="http://www.w3.org/1999/xlink" x="0px" y="0px"
	 width="64px" height="64px" viewBox="0 0 64 64" style="enable-background:new 0 0 64 64;" xml:space="preserve">
<g>
	<path d="M40.055,40.852l4.195-4.102l4.612,3.228c0.905,0.633,2.378,0.642,3.291,0.02L56,37.375l3.813,1.779
		c1.001,0.467,1.584-0.02,1.302-1.088L58.125,26.75c-20.264-5.117-25.191-1.857-26.312-0.506c-1.122-1.351-6.049-4.611-26.312,0.506
		L2.511,38.066c-0.282,1.068,0.301,1.555,1.302,1.088l3.813-1.779l3.848,2.623c0.913,0.622,2.386,0.613,3.291-0.02l4.612-3.228
		l4.195,4.102c0.79,0.772,2.199,0.94,3.148,0.374l5.095-3.039l5.095,3.039C37.856,41.791,39.265,41.624,40.055,40.852z"/>
</g>
</svg>
