<?xml version="1.0" encoding="iso-8859-1"?>
<!-- Generator: Adobe Illustrator 17.0.0, SVG Export Plug-In . SVG Version: 6.00 Build 0)  -->
<!DOCTYPE svg PUBLIC "-//W3C//DTD SVG 1.1//EN" "http://www.w3.org/Graphics/SVG/1.1/DTD/svg11.dtd">
<svg version="1.1" id="Capa_1" xmlns="http://www.w3.org/2000/svg" xmlns:xlink="http://www.w3.org/1999/xlink" x="0px" y="0px"
	 width="64px" height="64px" viewBox="0 0 64 64" style="enable-background:new 0 0 64 64;" xml:space="preserve">
<g>
	<path d="M59.245,47.599c-1.818,0-3.292,1.269-3.292,2.833c0,0.615,0.233,1.18,0.62,1.645c-7.011-3.448-1.717-13.508,0.264-18.643
		c2.262-5.862-2.673-11.025-11.721-11.025c-7.94,0-12.394,4.189-13.366,5.216c-0.972-1.027-5.427-5.216-13.366-5.216
		c-9.048,0-13.983,5.164-11.721,11.025c1.974,5.116,7.236,15.123,0.337,18.605c0.367-0.457,0.584-1.01,0.584-1.607
		c0-1.565-1.474-2.833-3.292-2.833S1,48.867,1,50.432c0,1.243,0.936,2.288,2.23,2.669c-0.022,0.003-0.041,0.007-0.063,0.01
		c0,0,12.132,3.21,18.507-2.093c5.533-4.603,9.202-5.735,10.076-5.954c0.874,0.219,4.544,1.351,10.076,5.954
		c6.375,5.303,18.507,2.093,18.507,2.093c-0.014-0.002-0.026-0.005-0.041-0.006c1.301-0.378,2.244-1.426,2.244-2.673
		C62.536,48.867,61.063,47.599,59.245,47.599z"/>
</g>
</svg>
