<?xml version="1.0" encoding="iso-8859-1"?>
<!-- Generator: Adobe Illustrator 17.0.0, SVG Export Plug-In . SVG Version: 6.00 Build 0)  -->
<!DOCTYPE svg PUBLIC "-//W3C//DTD SVG 1.1//EN" "http://www.w3.org/Graphics/SVG/1.1/DTD/svg11.dtd">
<svg version="1.1" id="Capa_1" xmlns="http://www.w3.org/2000/svg" xmlns:xlink="http://www.w3.org/1999/xlink" x="0px" y="0px"
	 width="64px" height="64px" viewBox="0 0 64 64" style="enable-background:new 0 0 64 64;" xml:space="preserve">
<g>
	<path d="M32,13.729c-14.362,0-26.006,15.173-26.006,36.041c0,0,1,3.901,4.834-1.1c3.834-5.001,3.667-0.167,5.001,1.667
		s4.834,0.167,6.001-3.001c1.167-3.167,3.667,1.667,3.834,2.5c0.167,0.834,4.501,2,5.001-2.334c0.5-4.334,5.835-0.167,5.835,1.667
		c0,1.834,4.001,2.167,4.834-1.667c0.834-3.834,3.334,1.334,5.001,2.834c1.667,1.5,4.334,0.333,2.501-3.167
		c-1.834-3.501,4.168-1,4.168,3.334c0,4.334,5.201,3.893,5.001-0.733C57.106,28.921,46.362,13.729,32,13.729z"/>
</g>
</svg>
