<?xml version="1.0" encoding="iso-8859-1"?>
<!-- Generator: Adobe Illustrator 17.0.0, SVG Export Plug-In . SVG Version: 6.00 Build 0)  -->
<!DOCTYPE svg PUBLIC "-//W3C//DTD SVG 1.1//EN" "http://www.w3.org/Graphics/SVG/1.1/DTD/svg11.dtd">
<svg version="1.1" id="Capa_1" xmlns="http://www.w3.org/2000/svg" xmlns:xlink="http://www.w3.org/1999/xlink" x="0px" y="0px"
	 width="64px" height="64px" viewBox="0 0 64 64" style="enable-background:new 0 0 64 64;" xml:space="preserve">
<g>
	<path d="M11.378,20.363c0.792-0.744,1.669-1.395,2.643-1.949c4.808-2.735,11.205-2.735,17.979-2.735c6.773,0,13.171,0,17.979,2.735
		c0.974,0.554,1.852,1.206,2.643,1.949c-1.459-7.256-6.829-12.686-13.874-14.815c-0.604-0.119-1.194-0.207-1.769-0.264
		c2.727,1.39,4.297,2.976,4.429,3.114c0.382,0.398,0.369,1.031-0.029,1.414c-0.194,0.186-0.443,0.278-0.692,0.278
		c-0.262,0-0.523-0.103-0.72-0.307c-0.176-0.181-3.161-3.182-8.203-4.24c-5.193,1.07-8.277,4.195-8.32,4.239
		c-0.196,0.205-0.459,0.308-0.722,0.308c-0.249,0-0.498-0.093-0.692-0.278C21.631,9.429,21.618,8.796,22,8.397
		c0.132-0.138,1.705-1.726,4.436-3.118c-0.121,0.012-0.237,0.016-0.359,0.031C18.626,7.253,12.894,12.825,11.378,20.363z"/>
	<path d="M56.027,37.467c0-6.319-1.101-10.613-3.026-13.541C48.897,17.685,41.032,17.678,32,17.678s-16.897,0.007-21.001,6.247
		c-1.925,2.928-3.026,7.222-3.026,13.541c0,2.482,0.56,4.855,1.573,7.045c-0.143-0.782-0.224-1.578-0.224-2.389
		c0-3.539,1.422-6.367,3.793-8.539c4.177-3.827,11.312-5.609,18.885-5.609s14.708,1.783,18.885,5.609
		c2.371,2.172,3.793,4.999,3.793,8.539c0,0.811-0.081,1.607-0.224,2.389C55.467,42.322,56.027,39.949,56.027,37.467z"/>
	<path d="M15.279,43.005c0-0.967-0.783-1.75-1.75-1.75s-1.75,0.783-1.75,1.75c0,2.952,1.069,5.74,2.881,8.152
		c1.114,1.483,2.511,2.819,4.134,3.958c1.715,1.203,3.671,2.183,5.801,2.877c0.087,0.143,0.172,0.287,0.264,0.423
		c0.13,0.192,0.267,0.376,0.408,0.552c0.861,1.072,1.914,1.804,3.158,1.804h7.148c1.244,0,2.298-0.731,3.158-1.804
		c0.141-0.176,0.277-0.359,0.408-0.552c0.092-0.136,0.177-0.28,0.264-0.423c2.129-0.694,4.085-1.674,5.8-2.877
		c1.623-1.138,3.02-2.475,4.135-3.958c1.812-2.412,2.881-5.2,2.881-8.152c0-0.967-0.783-1.75-1.75-1.75s-1.75,0.783-1.75,1.75
		c0,4.221-3.057,8.117-7.526,10.443c0.215-0.925,0.329-1.751,0.329-2.322c0-0.151-0.012-0.3-0.023-0.448
		c0.012-0.161,0.023-0.321,0.023-0.476c0-2.556-1.623-4.734-3.89-5.574c-0.643-0.238-1.334-0.375-2.059-0.375h-7.148
		c-0.725,0-1.416,0.137-2.059,0.375c-2.267,0.84-3.89,3.019-3.89,5.574c0,0.154,0.011,0.315,0.023,0.476
		c-0.011,0.148-0.023,0.297-0.023,0.448c0,0.572,0.114,1.398,0.329,2.322C18.336,51.122,15.279,47.226,15.279,43.005z
		 M28.426,48.177h7.148c1.491,0,2.715,1.117,2.909,2.556c-0.252,1.941-1.775,4.267-2.909,4.267H33.5V54.59
		c0-0.828-0.672-1.5-1.5-1.5s-1.5,0.672-1.5,1.5v0.409h-2.074c-1.135,0-2.658-2.325-2.909-4.267
		C25.711,49.294,26.935,48.177,28.426,48.177z"/>
</g>
</svg>
