<?xml version="1.0" encoding="iso-8859-1"?>
<!-- Generator: Adobe Illustrator 17.0.0, SVG Export Plug-In . SVG Version: 6.00 Build 0)  -->
<!DOCTYPE svg PUBLIC "-//W3C//DTD SVG 1.1//EN" "http://www.w3.org/Graphics/SVG/1.1/DTD/svg11.dtd">
<svg version="1.1" id="Capa_1" xmlns="http://www.w3.org/2000/svg" xmlns:xlink="http://www.w3.org/1999/xlink" x="0px" y="0px"
	 width="64px" height="64px" viewBox="0 0 64 64" style="enable-background:new 0 0 64 64;" xml:space="preserve">
<g>
	<path d="M53.117,17.919c0.754,2.359,1.173,4.841,1.173,7.37c0,7.653-8.019,13.608-19.5,14.481
		c-0.026,0.002-0.052,0.003-0.077,0.003c-0.518,0-0.956-0.399-0.996-0.924c-0.009-0.117,0.012-0.228,0.042-0.336
		c0.108-0.397,0.446-0.704,0.879-0.737c10.394-0.791,17.652-5.926,17.652-12.487c0-3.245-0.814-6.606-2.272-9.711
		C46.708,8.526,40.063,2.802,32,2.802S17.292,8.526,13.982,15.579c-1.458,3.105-2.272,6.466-2.272,9.71
		c0,2.673,1.24,5.195,3.587,7.294c0.291,0.26,0.383,0.651,0.288,1.004c-0.039,0.146-0.102,0.288-0.21,0.408
		c-0.368,0.411-0.999,0.447-1.412,0.078c-2.782-2.488-4.253-5.526-4.253-8.784c0-2.529,0.419-5.011,1.173-7.37
		c-3.026,2.758-4.812,6.132-4.812,9.778C6.071,37.01,17.68,44.558,32,44.558s25.929-7.549,25.929-16.861
		C57.929,24.051,56.143,20.678,53.117,17.919z"/>
	<path d="M40.478,59.029c0,1.347,1.799,1.21,1.73-0.228c-0.311-6.478-4.028-11.198-8.997-11.198c-4.969,0-8.997,4.714-8.997,11.198
		c0,0,0.346,1.212,1.672-0.342c1.326-1.554,1.269-0.052,1.73,0.518c0.461,0.57,1.672,0.052,2.076-0.932
		c0.404-0.984,1.269,0.518,1.326,0.777s1.557,0.622,1.73-0.725c0.173-1.347,2.018-0.052,2.018,0.518c0,0.57,1.384,0.673,1.672-0.518
		c0.288-1.191,1.153,0.414,1.73,0.88c0.577,0.466,1.499,0.104,0.865-0.984C38.402,56.905,40.478,57.682,40.478,59.029z"/>
</g>
</svg>
