<?xml version="1.0" encoding="iso-8859-1"?>
<!-- Generator: Adobe Illustrator 17.0.0, SVG Export Plug-In . SVG Version: 6.00 Build 0)  -->
<!DOCTYPE svg PUBLIC "-//W3C//DTD SVG 1.1//EN" "http://www.w3.org/Graphics/SVG/1.1/DTD/svg11.dtd">
<svg version="1.1" id="Capa_1" xmlns="http://www.w3.org/2000/svg" xmlns:xlink="http://www.w3.org/1999/xlink" x="0px" y="0px"
	 width="64px" height="64px" viewBox="0 0 64 64" style="enable-background:new 0 0 64 64;" xml:space="preserve">
<g>
	<path d="M11.378,19.412c0.792-0.744,1.669-1.395,2.643-1.949c4.808-2.735,11.205-2.735,17.979-2.735s13.171,0,17.979,2.735
		c0.974,0.554,1.852,1.206,2.643,1.949C51.164,12.159,45.798,6.731,38.757,4.6c-0.61-0.121-1.204-0.21-1.784-0.267
		c2.73,1.39,4.303,2.977,4.435,3.115c0.382,0.398,0.369,1.031-0.029,1.414c-0.194,0.186-0.443,0.278-0.692,0.278
		c-0.262,0-0.523-0.103-0.72-0.307c-0.175-0.181-3.162-3.185-8.206-4.242c-5.192,1.07-8.274,4.197-8.317,4.241
		c-0.196,0.205-0.459,0.308-0.722,0.308c-0.249,0-0.498-0.093-0.692-0.278C21.631,8.479,21.618,7.846,22,7.447
		c0.132-0.138,1.707-1.727,4.439-3.118c-0.124,0.013-0.243,0.016-0.368,0.032C18.623,6.305,12.893,11.876,11.378,19.412z"/>
	<path d="M56.027,36.516c0-6.319-1.101-10.613-3.026-13.541C48.897,16.734,41.032,16.727,32,16.727s-16.897,0.007-21.001,6.247
		c-1.925,2.928-3.026,7.222-3.026,13.541c0,2.482,0.56,4.855,1.573,7.045c-0.143-0.782-0.224-1.578-0.224-2.389
		c0-3.539,1.422-6.367,3.793-8.539c4.177-3.827,11.312-5.609,18.885-5.609s14.708,1.783,18.885,5.609
		c2.371,2.172,3.793,4.999,3.793,8.539c0,0.811-0.081,1.607-0.224,2.389C55.467,41.371,56.027,38.998,56.027,36.516z"/>
	<path d="M20.646,41.116c-4.262,3.786-4.141,10.473-2.305,7.802c2.129-3.097,7.046-3.13,8.493-3.068
		c0.134,0.015,0.27,0.025,0.409,0.025c1.201,0,2.258-0.597,2.906-1.505c0.418-0.585,0.67-1.297,0.67-2.071
		c0-1.975-1.601-3.576-3.576-3.576C24.361,38.723,22.211,39.725,20.646,41.116z"/>
	<path d="M36.758,38.723c-1.975,0-3.576,1.601-3.576,3.576c0,0.774,0.252,1.486,0.67,2.071c0.648,0.908,1.705,1.505,2.906,1.505
		c0.138,0,0.274-0.01,0.409-0.025c1.446-0.062,6.364-0.028,8.493,3.068c1.836,2.671,1.958-4.016-2.305-7.802
		C41.789,39.725,39.639,38.723,36.758,38.723z"/>
</g>
</svg>
