<?xml version="1.0" encoding="iso-8859-1"?>
<!-- Generator: Adobe Illustrator 17.0.0, SVG Export Plug-In . SVG Version: 6.00 Build 0)  -->
<!DOCTYPE svg PUBLIC "-//W3C//DTD SVG 1.1//EN" "http://www.w3.org/Graphics/SVG/1.1/DTD/svg11.dtd">
<svg version="1.1" id="Capa_1" xmlns="http://www.w3.org/2000/svg" xmlns:xlink="http://www.w3.org/1999/xlink" x="0px" y="0px"
	 width="64px" height="64px" viewBox="0 0 64 64" style="enable-background:new 0 0 64 64;" xml:space="preserve">
<g>
	<path d="M13.951,17.463c4.808-2.735,11.205-2.735,17.979-2.735c6.773,0,13.171,0,17.979,2.735c0.974,0.554,1.852,1.206,2.643,1.949
		C51.093,12.159,45.728,6.732,38.687,4.6c-0.611-0.121-1.206-0.21-1.787-0.268c2.731,1.39,4.305,2.977,4.437,3.115
		c0.382,0.398,0.369,1.031-0.029,1.414c-0.194,0.186-0.443,0.278-0.692,0.278c-0.262,0-0.524-0.103-0.72-0.307
		c-0.175-0.181-3.16-3.184-8.203-4.242c-5.191,1.07-8.276,4.197-8.319,4.241c-0.196,0.205-0.459,0.308-0.722,0.308
		c-0.249,0-0.499-0.093-0.692-0.278c-0.398-0.383-0.412-1.016-0.029-1.414c0.132-0.138,1.708-1.727,4.44-3.118
		c-0.124,0.012-0.243,0.016-0.368,0.032c-7.448,1.944-13.179,7.515-14.694,15.051C12.099,18.668,12.976,18.017,13.951,17.463z"/>
	<path d="M55.956,36.516c0-6.319-1.101-10.613-3.026-13.541c-4.104-6.241-11.968-6.247-21.001-6.247
		c-9.032,0-16.897,0.007-21.001,6.247c-1.925,2.928-3.026,7.222-3.026,13.541c0,2.482,0.56,4.855,1.573,7.044
		c-0.143-0.782-0.224-1.578-0.224-2.388c0-3.539,1.422-6.367,3.793-8.539c4.177-3.827,11.312-5.609,18.885-5.609
		c7.573,0,14.708,1.783,18.885,5.609c2.371,2.172,3.793,4.999,3.793,8.539c0,0.811-0.081,1.607-0.224,2.388
		C55.396,41.371,55.956,38.998,55.956,36.516z"/>
	<path d="M23.844,47.532c1.143-0.651,1.823-1.742,1.823-2.848c0-0.455-0.119-0.886-0.317-1.286
		c-0.656-1.327-2.286-2.271-4.204-2.271c-0.168,0-0.327,0.024-0.49,0.038c-2.189,0.188-3.911,1.592-4.019,3.345
		c-0.188,1.527,0.131,4.596,5.334,5.719c6.983,1.507,10.203-1.831,10.255-1.885c0.052,0.054,3.273,3.392,10.255,1.885
		c5.202-1.123,5.521-4.192,5.334-5.719c-0.117-1.883-2.088-3.382-4.509-3.382c-0.016,0-0.03,0.004-0.046,0.004
		c-1.761,0.014-3.266,0.824-3.997,1.991c-0.296,0.473-0.478,0.999-0.478,1.562c0,1.106,0.679,2.197,1.822,2.848
		c-0.452-0.257-0.789-1.055-0.917-1.461c-0.157-0.502-0.152-1.032-0.009-1.536c0.253-0.888,1.034-1.714,2.22-1.93
		c2.346-0.425,3.71,1.425,2.929,3.033c-0.405,0.833-1.314,1.563-2.157,2.136c-5.497,3.739-10.342-2.267-10.446-2.351v-0.004
		c0,0-0.002,0.002-0.002,0.002l-0.003-0.002v0.004c-0.104,0.083-4.949,6.09-10.446,2.351c-0.843-0.573-1.752-1.303-2.157-2.136
		c-0.781-1.608,0.583-3.458,2.929-3.033c1.187,0.215,1.968,1.041,2.22,1.93c0.143,0.504,0.148,1.033-0.009,1.536
		C24.633,46.477,24.296,47.275,23.844,47.532z"/>
</g>
</svg>
