<?xml version="1.0" encoding="iso-8859-1"?>
<!-- Generator: Adobe Illustrator 17.0.0, SVG Export Plug-In . SVG Version: 6.00 Build 0)  -->
<!DOCTYPE svg PUBLIC "-//W3C//DTD SVG 1.1//EN" "http://www.w3.org/Graphics/SVG/1.1/DTD/svg11.dtd">
<svg version="1.1" id="Capa_1" xmlns="http://www.w3.org/2000/svg" xmlns:xlink="http://www.w3.org/1999/xlink" x="0px" y="0px"
	 width="64px" height="64px" viewBox="0 0 64 64" style="enable-background:new 0 0 64 64;" xml:space="preserve">
<g>
	<path d="M31.929,44.558c14.32,0,25.929-7.549,25.929-16.861c0-3.647-1.786-7.02-4.812-9.778c0.754,2.359,1.173,4.841,1.173,7.37
		c0,7.653-8.019,13.608-19.5,14.481c-0.025,0.002-0.051,0.003-0.077,0.003c-0.518,0-0.956-0.399-0.996-0.924
		c-0.009-0.117,0.012-0.228,0.042-0.336c0.108-0.397,0.446-0.704,0.88-0.737c10.393-0.791,17.652-5.926,17.652-12.487
		c0-3.245-0.814-6.606-2.272-9.711C46.637,8.526,39.992,2.802,31.929,2.802S17.222,8.526,13.911,15.579
		c-1.458,3.105-2.272,6.466-2.272,9.711c0,2.673,1.24,5.195,3.587,7.294c0.291,0.26,0.384,0.651,0.289,1.004
		c-0.039,0.146-0.102,0.287-0.21,0.408c-0.368,0.41-1,0.446-1.412,0.078c-2.783-2.488-4.254-5.525-4.254-8.784
		c0-2.529,0.419-5.011,1.173-7.37C7.786,20.678,6,24.051,6,27.697C6,37.01,17.609,44.558,31.929,44.558z"/>
	<path d="M21.938,53.785c1.919,0.076,1.911-2.898,0-2.974c-2.732-0.108-5.557,0.935-5.776,4.008
		c-0.166,2.327,1.923,4.609,4.146,4.952c2.987,0.461,5.552-1.965,6.263-4.713c0.346-1.338,0.233-2.746,0.344-4.109
		c0.116-1.423,1.825-1.038,2.854-0.931c1.907,0.197,1.888-2.779,0-2.974c-2.356-0.244-4.693,0.117-5.596,2.567
		c-0.727,1.973,0.135,4.148-1.056,6.014c-0.887,1.39-2.731,1.693-3.667,0.262C18.258,54.061,20.597,53.732,21.938,53.785z"/>
	<path d="M40.882,55.626c-1.191-1.866-0.329-4.041-1.056-6.014c-0.902-2.45-3.239-2.811-5.596-2.567
		c-1.888,0.195-1.907,3.171,0,2.974c1.029-0.106,2.738-0.492,2.854,0.931c0.111,1.364-0.001,2.772,0.344,4.109
		c0.71,2.748,3.276,5.174,6.263,4.713c2.223-0.343,4.312-2.625,4.146-4.952c-0.219-3.074-3.043-4.117-5.776-4.008
		c-1.911,0.076-1.919,3.05,0,2.974c1.341-0.053,3.68,0.276,2.486,2.102C43.613,57.318,41.769,57.016,40.882,55.626z"/>
</g>
</svg>
