<?xml version="1.0" encoding="iso-8859-1"?>
<!-- Generator: Adobe Illustrator 17.0.0, SVG Export Plug-In . SVG Version: 6.00 Build 0)  -->
<!DOCTYPE svg PUBLIC "-//W3C//DTD SVG 1.1//EN" "http://www.w3.org/Graphics/SVG/1.1/DTD/svg11.dtd">
<svg version="1.1" id="Capa_1" xmlns="http://www.w3.org/2000/svg" xmlns:xlink="http://www.w3.org/1999/xlink" x="0px" y="0px"
	 width="64px" height="64px" viewBox="0 0 64 64" style="enable-background:new 0 0 64 64;" xml:space="preserve">
<g>
	<path d="M60.185,27.651c-0.012-0.315-0.031-0.635-0.07-0.968c-0.403-3.426-5.825-3.466-5.418,0
		c0.333,2.833-0.093,3.608-3.019,2.991c-2.821-0.594-5.528-1.559-8.261-2.459c-3.457-1.138-7.851-2.823-11.357-1.303
		c-3.506-1.52-7.9,0.165-11.357,1.303c-2.733,0.899-5.441,1.865-8.261,2.459c-2.926,0.616-3.353-0.159-3.019-2.991
		c0.408-3.466-5.014-3.426-5.418,0c-0.039,0.332-0.058,0.652-0.07,0.968c-1.155,0.348-2.172,1.342-2.148,2.853
		c0.058,3.609,1.576,6.017,3.969,7.04c1.783,4.299,5.96,5.421,10.592,3.019c2.78-1.442,5.272-3.35,7.796-5.189
		c0.872-0.635,3.676-3.097,5.582-3.813c0.275-0.023,0.54-0.089,0.791-0.189c0.092-0.006,0.181-0.006,0.265,0.002
		c0.384,0.193,0.816,0.297,1.279,0.282c0.463,0.016,0.895-0.088,1.279-0.282c0.084-0.008,0.173-0.008,0.265-0.002
		c0.251,0.1,0.516,0.167,0.791,0.189c1.906,0.716,4.71,3.178,5.582,3.813c2.524,1.839,5.016,3.747,7.796,5.189
		c4.631,2.402,8.808,1.28,10.592-3.019c2.393-1.024,3.911-3.432,3.969-7.04C62.357,28.993,61.34,27.999,60.185,27.651z"/>
</g>
</svg>
