<?xml version="1.0" encoding="iso-8859-1"?>
<!-- Generator: Adobe Illustrator 17.0.0, SVG Export Plug-In . SVG Version: 6.00 Build 0)  -->
<!DOCTYPE svg PUBLIC "-//W3C//DTD SVG 1.1//EN" "http://www.w3.org/Graphics/SVG/1.1/DTD/svg11.dtd">
<svg version="1.1" id="Capa_1" xmlns="http://www.w3.org/2000/svg" xmlns:xlink="http://www.w3.org/1999/xlink" x="0px" y="0px"
	 width="64px" height="64px" viewBox="0 0 64 64" style="enable-background:new 0 0 64 64;" xml:space="preserve">
<g>
	<path d="M59.462,32.17c-1.77,0-3.205,1.435-3.205,3.205c0,0.375,0.076,0.729,0.195,1.063L41.456,25.783
		c-0.9-0.64-2.343-0.616-3.222,0.053L32,30.582l-6.234-4.746c-0.879-0.669-2.321-0.693-3.222-0.053L7.549,36.438
		c0.118-0.334,0.195-0.688,0.195-1.063c0-1.77-1.435-3.205-3.205-3.205c-1.77,0-3.205,1.435-3.205,3.205
		c0,1.77,1.435,3.205,3.205,3.205c0.304,0,0.592-0.056,0.87-0.135c-0.011,0.015,18.298-5.878,18.298-5.878l6.479,3.012
		c1.002,0.466,2.626,0.466,3.627,0l6.479-3.012l18.31,5.893c0.267,0.064,0.555,0.12,0.859,0.12c1.77,0,3.205-1.435,3.205-3.205
		C62.667,33.605,61.232,32.17,59.462,32.17z"/>
</g>
</svg>
