<?xml version="1.0" encoding="iso-8859-1"?>
<!-- Generator: Adobe Illustrator 17.0.0, SVG Export Plug-In . SVG Version: 6.00 Build 0)  -->
<!DOCTYPE svg PUBLIC "-//W3C//DTD SVG 1.1//EN" "http://www.w3.org/Graphics/SVG/1.1/DTD/svg11.dtd">
<svg version="1.1" id="Capa_1" xmlns="http://www.w3.org/2000/svg" xmlns:xlink="http://www.w3.org/1999/xlink" x="0px" y="0px"
	 width="64px" height="64px" viewBox="0 0 64 64" style="enable-background:new 0 0 64 64;" xml:space="preserve">
<g>
	<path d="M61.303,30.026c0-1.023-0.354-1.973-0.96-2.762c-1.676-2.19-3.733-2.698-5.681-2.456l0.115-0.059
		c0,0-21.635-0.602-23.198,1.393c-1.563-1.995-23.198-1.393-23.198-1.393l0.01,0.005c-1.654,0.02-3.329,0.672-4.735,2.51
		c-0.606,0.788-0.96,1.739-0.96,2.762c0,2.727,2.514,4.938,5.615,4.938c0.321,0,0.634-0.029,0.94-0.075
		c0,0.025-0.004,0.049-0.004,0.075c0,2.727,2.514,4.938,5.615,4.938c0.247,0,0.488-0.019,0.726-0.046
		c0.964,1.5,2.79,2.515,4.889,2.515c1.003,0,1.942-0.234,2.756-0.639c0.997,1.372,2.741,2.285,4.73,2.285
		c1.586,0,3.015-0.58,4.036-1.51c1.021,0.929,2.45,1.51,4.036,1.51c1.989,0,3.733-0.912,4.73-2.285
		c0.815,0.405,1.754,0.639,2.756,0.639c2.099,0,3.926-1.015,4.889-2.515c0.238,0.027,0.479,0.046,0.726,0.046
		c3.101,0,5.615-2.211,5.615-4.938c0-0.025-0.004-0.049-0.004-0.075c0.306,0.046,0.619,0.075,0.94,0.075
		C58.789,34.964,61.303,32.753,61.303,30.026z"/>
</g>
</svg>
