<?xml version="1.0" encoding="iso-8859-1"?>
<!-- Generator: Adobe Illustrator 17.0.0, SVG Export Plug-In . SVG Version: 6.00 Build 0)  -->
<!DOCTYPE svg PUBLIC "-//W3C//DTD SVG 1.1//EN" "http://www.w3.org/Graphics/SVG/1.1/DTD/svg11.dtd">
<svg version="1.1" id="Capa_1" xmlns="http://www.w3.org/2000/svg" xmlns:xlink="http://www.w3.org/1999/xlink" x="0px" y="0px"
	 width="64px" height="64px" viewBox="0 0 64 64" style="enable-background:new 0 0 64 64;" xml:space="preserve">
<g>
	<path d="M7.826,51.221c0.909,0.251,1.811,0.378,2.681,0.378c3.173,0,6.019-1.671,8.23-4.831c1.7-2.431,2.964-5.685,3.467-8.929
		c0.203-1.307,0.249-3.04,0.303-5.046c0.163-6.098,0.387-14.45,5.499-15.001c1.86-0.201,2.781-1.834,2.704-3.269
		c-0.08-1.493-1.139-2.536-2.576-2.536c-0.11,0-0.224,0.006-0.342,0.019c-9.573,1.032-10.211,10.829-10.676,17.983l-0.009,0.144
		c-0.03,0.456-0.057,0.917-0.084,1.38c-0.239,4.042-0.485,8.223-2.525,11.578c-0.893,1.469-2.77,2.495-4.565,2.495
		c-0.651,0-1.256-0.13-1.797-0.388c-1.741-0.828-2.538-3.311-1.946-4.687L6.2,40.486l0.009-0.025
		c0.505-1.371,1.568-2.366,2.527-2.366c0.183,0,0.368,0.035,0.551,0.104c0.008,0.004,0.016,0.008,0.023,0.012
		c-1.07,0.152-1.916,1.007-2.156,2.221c-0.296,1.494,0.452,2.929,1.818,3.492c0.593,0.244,1.184,0.368,1.758,0.368
		c2.888,0,4.614-3.017,4.614-5.933c0-2.9-1.712-5.826-5.539-5.827c-0.35,0-0.717,0.025-1.09,0.075
		c-4.315,0.578-7.303,3.892-7.613,8.441C0.835,44.981,2.825,49.842,7.826,51.221z"/>
	<path d="M55.285,32.607c-0.373-0.05-0.74-0.075-1.09-0.075c-2.248,0-3.548,1.019-4.244,1.874c-0.835,1.027-1.295,2.43-1.295,3.952
		c0,2.917,1.726,5.934,4.614,5.934c0.574,0,1.166-0.124,1.758-0.368c1.366-0.562,2.113-1.998,1.818-3.492
		c-0.24-1.215-1.086-2.069-2.156-2.221c0.008-0.004,0.016-0.008,0.023-0.012c0.183-0.069,0.369-0.104,0.551-0.104
		c0.959,0,2.022,0.995,2.527,2.366l0.009,0.025l0.011,0.025c0.592,1.376-0.205,3.859-1.946,4.687
		c-0.541,0.257-1.145,0.388-1.797,0.388c-1.795,0-3.672-1.026-4.565-2.495c-2.039-3.355-2.286-7.535-2.525-11.578
		c-0.027-0.464-0.055-0.924-0.084-1.38l-0.009-0.144c-0.465-7.153-1.102-16.95-10.676-17.983c-0.118-0.013-0.232-0.019-0.342-0.019
		h0c-1.437,0-2.496,1.043-2.576,2.537c-0.077,1.435,0.844,3.068,2.704,3.268c5.112,0.551,5.336,8.903,5.499,15.001
		c0.054,2.007,0.1,3.74,0.303,5.046c1.028,6.627,5.126,13.76,11.696,13.76c0.87,0,1.772-0.127,2.681-0.378
		c5.001-1.379,6.991-6.24,6.724-10.172C62.588,36.499,59.6,33.186,55.285,32.607z"/>
</g>
</svg>
