<?xml version="1.0" encoding="iso-8859-1"?>
<!-- Generator: Adobe Illustrator 17.0.0, SVG Export Plug-In . SVG Version: 6.00 Build 0)  -->
<!DOCTYPE svg PUBLIC "-//W3C//DTD SVG 1.1//EN" "http://www.w3.org/Graphics/SVG/1.1/DTD/svg11.dtd">
<svg version="1.1" id="Capa_1" xmlns="http://www.w3.org/2000/svg" xmlns:xlink="http://www.w3.org/1999/xlink" x="0px" y="0px"
	 width="64px" height="64px" viewBox="0 0 64 64" style="enable-background:new 0 0 64 64;" xml:space="preserve">
<g>
	<path d="M6.299,38.751c0-5.037,24.011,3.19,25.696-5.064c1.685,8.254,25.696,0.027,25.696,5.064c0,5.22,3.714,5.22,3.714,0
		c0-5.22,1.907-10.842-14.858-10.842c-12.82,0-14.407-5.629-14.545-6.264c-0.002-0.043-0.003-0.061-0.003-0.061
		s-0.002,0.009-0.004,0.024c-0.003-0.015-0.004-0.024-0.004-0.024s-0.001,0.018-0.003,0.061c-0.138,0.635-1.724,6.264-14.545,6.264
		c-16.765,0-14.858,5.622-14.858,10.842C2.584,43.971,6.299,43.971,6.299,38.751z"/>
</g>
</svg>
