<?xml version="1.0" encoding="iso-8859-1"?>
<!-- Generator: Adobe Illustrator 17.0.0, SVG Export Plug-In . SVG Version: 6.00 Build 0)  -->
<!DOCTYPE svg PUBLIC "-//W3C//DTD SVG 1.1//EN" "http://www.w3.org/Graphics/SVG/1.1/DTD/svg11.dtd">
<svg version="1.1" id="Capa_1" xmlns="http://www.w3.org/2000/svg" xmlns:xlink="http://www.w3.org/1999/xlink" x="0px" y="0px"
	 width="64px" height="64px" viewBox="0 0 64 64" style="enable-background:new 0 0 64 64;" xml:space="preserve">
<g>
	<path d="M32.325,24.63c-2.784-1.256-5.93-1.829-9.189-1.615l0.012-0.006c0,0-5.143,0.291-10.021,1.83
		c-1.737,0.548-1.899,0.936-1.393,1.21c-1.262,0.594-2.513,1.295-3.662,2.137c-2.721,1.993-2.103,2.21-0.75,1.908l-0.078,0.038
		c0,0,0.609-0.089-2.951,2.403c-1.508,1.056-0.706,1.678,0.816,1.849c-0.453,0.773-0.875,1.559-1.231,2.372
		c-0.382,0.874-0.002,1.974,0.808,2.339c0.416,0.187,0.843,0.354,1.275,0.51c-0.406,0.804-0.201,1.661,1.562,2.316
		c2.173,0.807,4.189-0.064,5.709-1.191c0.068-0.002,0.136-0.002,0.204-0.005c-1.002,1.4-1.411,2.769,1.035,2.584
		c2.91-0.22,6.189-3.022,8.347-5.224c0.121-0.065,0.235-0.138,0.355-0.205c-0.993,1.385-1.583,2.696,0.502,1.91
		c3.89-1.466,7.879-9.898,7.879-9.898l-0.015,0.005c0.281-0.45,0.538-0.91,0.786-1.376c0.248,0.465,0.505,0.926,0.786,1.376
		l-0.015-0.005c0,0,3.989,8.432,7.879,9.898c2.085,0.786,1.495-0.525,0.502-1.91c0.119,0.067,0.234,0.14,0.355,0.205
		c2.159,2.202,5.438,5.003,8.347,5.224c2.446,0.185,2.037-1.184,1.035-2.584c0.068,0.003,0.136,0.003,0.204,0.005
		c1.52,1.127,3.536,1.998,5.709,1.191c1.763-0.655,1.969-1.512,1.562-2.316c0.432-0.157,0.859-0.323,1.275-0.51
		c0.81-0.365,1.19-1.465,0.808-2.339c-0.355-0.812-0.778-1.599-1.231-2.372c1.523-0.171,2.325-0.793,0.816-1.849
		c-3.56-2.492-2.952-2.403-2.952-2.403l-0.078-0.038c1.353,0.302,1.97,0.085-0.75-1.908c-1.149-0.842-2.4-1.543-3.662-2.137
		c0.507-0.274,0.344-0.662-1.393-1.21c-4.879-1.539-10.021-1.83-10.021-1.83l0.012,0.006C38.255,22.8,35.109,23.374,32.325,24.63z"
		/>
</g>
</svg>
