<?xml version="1.0" encoding="iso-8859-1"?>
<!-- Generator: Adobe Illustrator 17.0.0, SVG Export Plug-In . SVG Version: 6.00 Build 0)  -->
<!DOCTYPE svg PUBLIC "-//W3C//DTD SVG 1.1//EN" "http://www.w3.org/Graphics/SVG/1.1/DTD/svg11.dtd">
<svg version="1.1" id="Capa_1" xmlns="http://www.w3.org/2000/svg" xmlns:xlink="http://www.w3.org/1999/xlink" x="0px" y="0px"
	 width="64px" height="64px" viewBox="0 0 64 64" style="enable-background:new 0 0 64 64;" xml:space="preserve">
<g>
	<path d="M58.958,29.865c-3.05-5.546-12.189-8.55-15.178-9.404c-0.313-0.103-2.076-0.429-2.656-0.429c-2.75,0-6.559-0.059-9.25,0.83
		c-2.691-0.889-6.5-0.83-9.25-0.83c-0.58,0-2.342,0.326-2.656,0.429c-2.989,0.854-12.127,3.859-15.178,9.404
		c-3.667,6.667,1.833,1.167,1.833,1.167s-4,7.167-2.167,9.333c1.833,2.167,3.667-1.689,3.667-1.689s-2.833,6.659,1,8.507
		s2-1.818,7.833-3.818c3.943-1.352,10.85-5.902,14.917-11.128c4.066,5.226,10.974,9.776,14.917,11.128c5.833,2,4,5.667,7.833,3.818
		s1-8.507,1-8.507s1.833,3.856,3.667,1.689c1.833-2.167-2.167-9.333-2.167-9.333S62.625,36.531,58.958,29.865z"/>
</g>
</svg>
