<?xml version="1.0" encoding="iso-8859-1"?>
<!-- Generator: Adobe Illustrator 17.0.0, SVG Export Plug-In . SVG Version: 6.00 Build 0)  -->
<!DOCTYPE svg PUBLIC "-//W3C//DTD SVG 1.1//EN" "http://www.w3.org/Graphics/SVG/1.1/DTD/svg11.dtd">
<svg version="1.1" id="Capa_1" xmlns="http://www.w3.org/2000/svg" xmlns:xlink="http://www.w3.org/1999/xlink" x="0px" y="0px"
	 width="64px" height="64px" viewBox="0 0 64 64" style="enable-background:new 0 0 64 64;" xml:space="preserve">
<g>
	<path d="M57.065,23.034c-1.105,0-2.08,0.533-2.702,1.35c-0.384-4.465-1.362-11.556-3.803-15.256
		C46.828,3.47,38.74,5.167,38.74,5.167s-3.111-0.239-3.111,4.934c0,2.278-2.51,2.562-3.469,2.588c-0.01,0-0.029,0.001-0.043,0.001
		c-0.043,0.001-0.082,0.001-0.117,0.001c-0.035,0-0.074,0-0.117-0.001c-0.013,0-0.033,0-0.043-0.001
		c-0.959-0.026-3.469-0.31-3.469-2.588c0-5.173-3.111-4.934-3.111-4.934s-8.088-1.697-11.821,3.96
		c-2.441,3.7-3.419,10.791-3.803,15.256c-0.621-0.817-1.596-1.349-2.701-1.349c-1.879,0-3.401,1.523-3.401,3.401
		c0,8.472,21.789,9.13,28.467,9.13c6.679,0,28.467-0.659,28.467-9.13C60.467,24.557,58.944,23.034,57.065,23.034z M11.232,22.118
		c0,0,12.016,1.69,20.932,1.7c8.779-0.01,20.611-1.7,20.611-1.7c0.156,1.366,0.282,2.713,0.372,3.745
		c-2.564,1.232-9.828,2.9-21.148,2.9c-11.317,0-18.579-1.667-21.145-2.899C10.945,24.832,11.073,23.485,11.232,22.118z"/>
	<path d="M15.59,51.204l2.234-1.043l2.255,1.537c0.535,0.365,1.398,0.359,1.929-0.012l2.703-1.892l2.459,2.404
		c0.463,0.453,1.289,0.551,1.845,0.219L32,50.636l2.986,1.781c0.556,0.332,1.382,0.234,1.845-0.219l2.459-2.404l2.703,1.892
		c0.53,0.371,1.394,0.377,1.929,0.012l2.255-1.537l2.234,1.043c0.587,0.274,0.928-0.012,0.763-0.638l-1.752-6.632
		C35.545,40.935,32.657,42.846,32,43.637c-0.657-0.792-3.545-2.703-15.421,0.296l-1.752,6.632
		C14.661,51.192,15.003,51.477,15.59,51.204z"/>
</g>
</svg>
