<?xml version="1.0" encoding="iso-8859-1"?>
<!-- Generator: Adobe Illustrator 17.0.0, SVG Export Plug-In . SVG Version: 6.00 Build 0)  -->
<!DOCTYPE svg PUBLIC "-//W3C//DTD SVG 1.1//EN" "http://www.w3.org/Graphics/SVG/1.1/DTD/svg11.dtd">
<svg version="1.1" id="Capa_1" xmlns="http://www.w3.org/2000/svg" xmlns:xlink="http://www.w3.org/1999/xlink" x="0px" y="0px"
	 width="64px" height="64px" viewBox="0 0 64 64" style="enable-background:new 0 0 64 64;" xml:space="preserve">
<g>
	<path d="M17.633,36.854c0.333-0.333,0.654-0.669,0.966-1.007c0.815,0.322,1.7,0.504,2.629,0.504c2.38,0,4.484-1.165,5.788-2.95
		c0.737,0.327,1.548,0.516,2.406,0.516c1.128,0,2.171-0.332,3.07-0.877c0.899,0.545,1.942,0.877,3.07,0.877
		c0.858,0,1.669-0.189,2.406-0.516c1.304,1.786,3.407,2.95,5.788,2.95c0.95,0,1.854-0.189,2.683-0.524
		c0.317,0.344,0.645,0.687,0.985,1.026c5.492,5.492,11.775,8.115,14.032,5.858s-0.366-8.539-5.858-14.032
		c-3.51-3.51-7.338-5.839-10.236-6.481c-0.141-0.031-0.28-0.057-0.417-0.08c-0.119-0.02-0.237-0.041-0.358-0.055
		c-0.119-0.014-0.234-0.02-0.349-0.028c-0.126-0.008-0.252-0.017-0.38-0.019c-0.035,0-0.068-0.005-0.103-0.005
		c-0.185,0-0.367,0.014-0.549,0.028c-0.012,0.009-0.024,0.018-0.036,0.027c-0.576,0.454-1.214,0.881-1.909,1.263
		c-0.035,0.019-0.071,0.035-0.106,0.055c-0.403,0.217-0.808,0.41-1.212,0.581c-0.554,0.234-1.106,0.427-1.647,0.574
		c-1.418,0.384-2.757,0.469-3.856,0.253c-1.084-0.213-1.93-0.72-2.387-1.514c-0.278,0.483-0.704,0.856-1.237,1.124
		c-1.006,0.506-2.399,0.629-3.948,0.366c-0.66-0.112-1.347-0.293-2.044-0.545c-0.229-0.083-0.459-0.173-0.69-0.271
		c-0.43-0.183-0.861-0.387-1.289-0.622c-0.714-0.392-1.368-0.832-1.957-1.3c-0.001,0-0.001-0.001-0.002-0.001
		c-0.723,0.034-1.417,0.173-2.068,0.406c-2.769,0.873-6.195,3.078-9.362,6.245c-5.492,5.493-8.115,11.775-5.858,14.032
		S12.141,42.346,17.633,36.854z"/>
</g>
</svg>
