<?xml version="1.0" encoding="iso-8859-1"?>
<!-- Generator: Adobe Illustrator 17.0.0, SVG Export Plug-In . SVG Version: 6.00 Build 0)  -->
<!DOCTYPE svg PUBLIC "-//W3C//DTD SVG 1.1//EN" "http://www.w3.org/Graphics/SVG/1.1/DTD/svg11.dtd">
<svg version="1.1" id="Capa_1" xmlns="http://www.w3.org/2000/svg" xmlns:xlink="http://www.w3.org/1999/xlink" x="0px" y="0px"
	 width="64px" height="64px" viewBox="0 0 64 64" style="enable-background:new 0 0 64 64;" xml:space="preserve">
<g>
	<path d="M57.065,23.034c-1.105,0-2.08,0.533-2.702,1.35c-0.384-4.465-1.362-11.556-3.803-15.256
		C46.828,3.47,38.74,5.167,38.74,5.167s-3.111-0.239-3.111,4.934c0,2.278-2.51,2.562-3.469,2.588c-0.01,0-0.029,0.001-0.043,0.001
		c-0.043,0.001-0.082,0.001-0.117,0.001c-0.035,0-0.074,0-0.117-0.001c-0.013,0-0.033,0-0.043-0.001
		c-0.959-0.026-3.469-0.31-3.469-2.588c0-5.173-3.111-4.934-3.111-4.934s-8.088-1.697-11.821,3.96
		c-2.441,3.7-3.419,10.791-3.803,15.256c-0.621-0.817-1.596-1.349-2.701-1.349c-1.879,0-3.401,1.523-3.401,3.401
		c0,8.472,21.789,9.13,28.467,9.13c6.679,0,28.467-0.659,28.467-9.13C60.467,24.557,58.944,23.034,57.065,23.034z M11.232,22.118
		c0,0,12.016,1.69,20.932,1.7c8.779-0.01,20.611-1.7,20.611-1.7c0.156,1.366,0.282,2.713,0.372,3.745
		c-2.564,1.232-9.828,2.9-21.148,2.9c-11.317,0-18.579-1.667-21.145-2.899C10.945,24.832,11.073,23.485,11.232,22.118z"/>
	<path d="M17.599,42.296c-3.886-0.481-5.81,3.478-3.182,7.29c2.3,3.337,8.778,2.452,11.717,1.644
		c0.059-0.016,0.118-0.036,0.177-0.053c0.334-0.096,0.626-0.191,0.84-0.275c2.191-0.841,3.874-2.36,4.843-4.131
		c0.969,1.771,2.652,3.29,4.843,4.131c0.054,0.021,0.109,0.034,0.164,0.054c0.159,0.058,0.345,0.119,0.556,0.182
		c0.127,0.038,0.253,0.077,0.38,0.11c2.969,0.803,9.364,1.651,11.647-1.662c2.627-3.812,0.703-7.771-3.182-7.29
		c-3.885,0.481-2.516,2.923-2.516,2.923c-0.695-1.596,2.775-2.072,2.22,0.444c-0.555,2.516-6.478,0.263-6.478,0.263l-0.006,0.01
		c-0.245-0.118-0.491-0.233-0.75-0.332c-2.391-0.918-4.875-0.838-6.877,0.022c-2.002-0.86-4.486-0.94-6.877-0.022
		c-0.256,0.098-0.499,0.212-0.741,0.328l-0.003-0.006c0,0-5.923,2.253-6.478-0.263c-0.555-2.516,2.915-2.04,2.22-0.444
		C20.115,45.219,21.484,42.777,17.599,42.296z"/>
</g>
</svg>
