<?xml version="1.0" encoding="iso-8859-1"?>
<!-- Generator: Adobe Illustrator 17.0.0, SVG Export Plug-In . SVG Version: 6.00 Build 0)  -->
<!DOCTYPE svg PUBLIC "-//W3C//DTD SVG 1.1//EN" "http://www.w3.org/Graphics/SVG/1.1/DTD/svg11.dtd">
<svg version="1.1" id="Capa_1" xmlns="http://www.w3.org/2000/svg" xmlns:xlink="http://www.w3.org/1999/xlink" x="0px" y="0px"
	 width="64px" height="64px" viewBox="0 0 64 64" style="enable-background:new 0 0 64 64;" xml:space="preserve">
<g>
	<path d="M12.575,26.7c-0.791-0.879-2.141-0.804-3.016,0.168l-6.114,6.793c-0.875,0.972-0.942,2.472-0.151,3.351
		c0.791,0.879,2.141,0.804,3.016-0.168l6.114-6.793C13.299,29.08,13.367,27.579,12.575,26.7z"/>
	<path d="M11.434,37.962c0.915,0.716,2.234,0.385,2.946-0.739l4.978-7.855c0.712-1.124,0.548-2.615-0.367-3.33
		c-0.915-0.716-2.234-0.385-2.946,0.739l-4.978,7.855C10.355,35.756,10.519,37.247,11.434,37.962z"/>
	<path d="M20.017,38.85c1.051,0.426,2.247-0.275,2.671-1.566l2.963-9.026c0.424-1.291-0.085-2.683-1.136-3.109
		c-1.051-0.426-2.247,0.275-2.671,1.566l-2.963,9.026C18.458,37.032,18.966,38.424,20.017,38.85z"/>
	<path d="M27.473,26.858l-1.628,9.435c-0.233,1.35,0.469,2.634,1.568,2.868c1.099,0.234,2.178-0.67,2.411-2.02l1.628-9.435
		c0.233-1.35-0.469-2.634-1.568-2.868C28.786,24.604,27.706,25.509,27.473,26.858z"/>
	<path d="M60.706,37.013c0.791-0.879,0.723-2.379-0.151-3.351l-6.114-6.793c-0.875-0.972-2.225-1.047-3.016-0.168
		c-0.791,0.879-0.723,2.379,0.151,3.351l6.114,6.793C58.565,37.817,59.915,37.892,60.706,37.013z"/>
	<path d="M52.566,37.962c0.915-0.716,1.079-2.207,0.367-3.33l-4.978-7.855c-0.712-1.124-2.031-1.454-2.946-0.739
		c-0.915,0.716-1.079,2.207-0.367,3.33l4.978,7.855C50.332,38.347,51.651,38.678,52.566,37.962z"/>
	<path d="M39.485,25.15c-1.051,0.426-1.56,1.818-1.136,3.109l2.963,9.026c0.424,1.291,1.62,1.992,2.671,1.566
		s1.56-1.818,1.136-3.109l-2.963-9.026C41.731,25.425,40.536,24.724,39.485,25.15z"/>
	<path d="M34.115,24.839c-1.099,0.234-1.801,1.518-1.568,2.868l1.628,9.435c0.233,1.35,1.312,2.254,2.411,2.02
		c1.099-0.234,1.801-1.518,1.568-2.868l-1.628-9.435C36.294,25.509,35.214,24.604,34.115,24.839z"/>
</g>
</svg>
