<?xml version="1.0" encoding="iso-8859-1"?>
<!-- Generator: Adobe Illustrator 17.0.0, SVG Export Plug-In . SVG Version: 6.00 Build 0)  -->
<!DOCTYPE svg PUBLIC "-//W3C//DTD SVG 1.1//EN" "http://www.w3.org/Graphics/SVG/1.1/DTD/svg11.dtd">
<svg version="1.1" id="Capa_1" xmlns="http://www.w3.org/2000/svg" xmlns:xlink="http://www.w3.org/1999/xlink" x="0px" y="0px"
	 width="64px" height="64px" viewBox="0 0 64 64" style="enable-background:new 0 0 64 64;" xml:space="preserve">
<g>
	<path d="M2.86,38.855c0,0,5.324,9.316,28.973-3.567c23.65,12.884,28.973,3.567,28.973,3.567
		c-9.544,1.193-12.498-2.857-12.498-2.857c3.863,1.063,7.953-0.892,7.953-0.892c-3.857-0.232-8.547-2.818-11.164-4.456
		c2.708,1.114,6.165,0.706,6.165,0.706s-3.181-0.682-4.999-6.988c-1.643-5.699-12.378-5.83-14.43-5.802
		c-2.052-0.028-12.787,0.103-14.43,5.802c-1.818,6.306-4.999,6.988-4.999,6.988s3.457,0.408,6.165-0.706
		c-2.617,1.638-7.307,4.224-11.164,4.456c0,0,4.09,1.955,7.953,0.892C15.358,35.997,12.404,40.048,2.86,38.855z"/>
</g>
</svg>
