<?xml version="1.0" encoding="iso-8859-1"?>
<!-- Generator: Adobe Illustrator 17.0.0, SVG Export Plug-In . SVG Version: 6.00 Build 0)  -->
<!DOCTYPE svg PUBLIC "-//W3C//DTD SVG 1.1//EN" "http://www.w3.org/Graphics/SVG/1.1/DTD/svg11.dtd">
<svg version="1.1" id="Capa_1" xmlns="http://www.w3.org/2000/svg" xmlns:xlink="http://www.w3.org/1999/xlink" x="0px" y="0px"
	 width="64px" height="64px" viewBox="0 0 64 64" style="enable-background:new 0 0 64 64;" xml:space="preserve">
<g>
	<path d="M32,43.608c27.833,0,27.833,0,27.833-11.567c0-4.248-2.92-8.103-7.668-10.956c-3.041-1.669-6.107-2.74-9.05,0.044
		c-1.588,1.502-3.724,2.419-5.373,2.952c-0.508,0.173-1.041,0.32-1.592,0.447c-0.22,0.052-0.402,0.091-0.547,0.121
		c-0.065,0.013-0.129,0.026-0.195,0.038c-0.102,0.019-0.167,0.03-0.167,0.03l-0.05,0.004c-1.015,0.173-2.083,0.272-3.19,0.272
		c-0.095,0-0.188-0.007-0.282-0.009l-0.057,0.004v-0.006c-0.823-0.014-1.623-0.08-2.396-0.191l-0.98-0.074
		c0,0-4.905-0.778-7.875-3.587c-2.003-1.895-4.064-2.001-6.135-1.351C8.101,22.695,4.167,27.106,4.167,32.041
		C4.167,43.608,4.167,43.608,32,43.608z"/>
</g>
</svg>
