<?xml version="1.0" encoding="iso-8859-1"?>
<!-- Generator: Adobe Illustrator 17.0.0, SVG Export Plug-In . SVG Version: 6.00 Build 0)  -->
<!DOCTYPE svg PUBLIC "-//W3C//DTD SVG 1.1//EN" "http://www.w3.org/Graphics/SVG/1.1/DTD/svg11.dtd">
<svg version="1.1" id="Capa_1" xmlns="http://www.w3.org/2000/svg" xmlns:xlink="http://www.w3.org/1999/xlink" x="0px" y="0px"
	 width="64px" height="64px" viewBox="0 0 64 64" style="enable-background:new 0 0 64 64;" xml:space="preserve">
<g>
	<path d="M32,44.558c14.32,0,25.929-7.549,25.929-16.861c0-3.646-1.786-7.02-4.812-9.778c0.754,2.359,1.173,4.841,1.173,7.37
		c0,7.653-8.019,13.608-19.5,14.481c-0.026,0.002-0.052,0.003-0.077,0.003c-0.518,0-0.956-0.399-0.996-0.924
		c-0.009-0.117,0.012-0.228,0.042-0.336c0.108-0.397,0.446-0.704,0.879-0.737c10.394-0.791,17.652-5.926,17.652-12.487
		c0-3.245-0.814-6.606-2.272-9.711C46.708,8.526,40.063,2.802,32,2.802S17.292,8.526,13.982,15.579
		c-1.458,3.105-2.272,6.466-2.272,9.71c0,2.673,1.24,5.195,3.587,7.294c0.291,0.26,0.383,0.651,0.288,1.004
		c-0.039,0.146-0.102,0.288-0.21,0.408c-0.368,0.411-0.999,0.447-1.412,0.078c-2.782-2.488-4.253-5.526-4.253-8.784
		c0-2.529,0.419-5.011,1.173-7.37c-3.026,2.758-4.812,6.132-4.812,9.778C6.071,37.01,17.68,44.558,32,44.558z"/>
	<path d="M32,57.617c0.05,0,0.098,0.002,0.15,0.002v-0.003c5.318-0.073,5.816-2.049,5.816-2.049l-2.651-6.434
		C32.551,50.099,32,49.337,32,49.337c-0.459,0.819-3.314-0.205-3.314-0.205l-2.651,6.434c0,0,0.498,1.977,5.816,2.049v0.003
		C31.902,57.618,31.95,57.617,32,57.617z"/>
</g>
</svg>
