<?xml version="1.0" encoding="iso-8859-1"?>
<!-- Generator: Adobe Illustrator 17.0.0, SVG Export Plug-In . SVG Version: 6.00 Build 0)  -->
<!DOCTYPE svg PUBLIC "-//W3C//DTD SVG 1.1//EN" "http://www.w3.org/Graphics/SVG/1.1/DTD/svg11.dtd">
<svg version="1.1" id="Capa_1" xmlns="http://www.w3.org/2000/svg" xmlns:xlink="http://www.w3.org/1999/xlink" x="0px" y="0px"
	 width="64px" height="64px" viewBox="0 0 64 64" style="enable-background:new 0 0 64 64;" xml:space="preserve">
<g>
	<path d="M53.117,17.919c0.754,2.359,1.173,4.841,1.173,7.37c0,7.653-8.019,13.608-19.5,14.481
		c-0.025,0.002-0.051,0.003-0.077,0.003c-0.518,0-0.956-0.399-0.996-0.924c-0.009-0.117,0.012-0.228,0.042-0.336
		c0.108-0.397,0.446-0.704,0.88-0.737c10.393-0.791,17.652-5.926,17.652-12.487c0-3.245-0.814-6.606-2.272-9.711
		C46.707,8.526,40.063,2.802,32,2.802S17.293,8.526,13.982,15.578c-1.458,3.105-2.272,6.466-2.272,9.711
		c0,2.673,1.24,5.195,3.587,7.294c0.291,0.26,0.384,0.651,0.289,1.004c-0.039,0.146-0.102,0.287-0.21,0.408
		c-0.368,0.41-1,0.446-1.412,0.078c-2.783-2.488-4.254-5.525-4.254-8.784c0-2.529,0.419-5.011,1.173-7.37
		c-3.026,2.758-4.812,6.132-4.812,9.778C6.071,37.01,17.68,44.558,32,44.558s25.929-7.549,25.929-16.861
		C57.929,24.051,56.143,20.678,53.117,17.919z"/>
	<path d="M43.568,56.177c0.797,0.762,2.331-0.316,1.656-1.34c-1.29-1.957-1.704-3.876-2.95-5.856
		c-0.438-0.697-1.31-0.502-1.731,0.012c-0.41-0.305-0.95-0.23-1.329,0.034c-0.532-0.262-1.266-0.067-1.564,0.376
		c-0.247-0.119-1.48-0.153-1.747-0.12c-0.294-0.516-1.036-0.633-1.555-0.404c-0.359-0.355-1.038-0.37-1.499-0.089
		c-0.24-0.172-0.552-0.255-0.85-0.244c-0.297-0.011-0.609,0.073-0.85,0.244c-0.461-0.281-1.14-0.266-1.499,0.089
		c-0.52-0.229-1.261-0.112-1.555,0.404c-0.267-0.033-1.5,0.001-1.747,0.12c-0.297-0.443-1.032-0.638-1.564-0.376
		c-0.38-0.264-0.919-0.339-1.329-0.034c-0.42-0.514-1.292-0.709-1.731-0.012c-1.246,1.98-1.66,3.899-2.95,5.856
		c-0.675,1.024,0.86,2.103,1.656,1.34c0.45,0.375,1.19,0.461,1.616-0.132c0.087-0.121,0.169-0.245,0.255-0.367
		c-0.008,0.019-0.017,0.037-0.025,0.055c-0.508,1.197,1.584,1.879,2.091,0.683c0.408-0.961,0.869-1.902,1.336-2.841
		c-0.256,0.726-0.529,1.448-0.82,2.165c-0.422,1.036,1.071,1.683,1.806,1.074c0.534,0.464,1.533,0.494,1.798-0.319
		c0.2-0.614,0.397-1.228,0.585-1.844c-0.096,0.768-0.216,1.535-0.374,2.299c-0.184,0.887,2.038,1.042,2.22,0.164
		c0.042-0.202,0.078-0.405,0.115-0.608c0.038,0.05,0.08,0.094,0.127,0.137c0.195,0.245,0.506,0.356,0.84,0.34
		c0.333,0.016,0.645-0.094,0.84-0.34c0.047-0.043,0.089-0.087,0.127-0.137c0.037,0.203,0.073,0.406,0.115,0.608
		c0.182,0.879,2.404,0.723,2.22-0.164c-0.159-0.764-0.278-1.531-0.374-2.299c0.188,0.616,0.385,1.23,0.585,1.844
		c0.264,0.813,1.264,0.783,1.798,0.319c0.734,0.61,2.227-0.038,1.806-1.074c-0.292-0.717-0.564-1.439-0.82-2.165
		c0.468,0.938,0.928,1.88,1.336,2.841c0.507,1.196,2.599,0.514,2.091-0.683c-0.008-0.019-0.017-0.037-0.025-0.055
		c0.086,0.122,0.168,0.245,0.255,0.367C42.379,56.638,43.118,56.552,43.568,56.177z"/>
</g>
</svg>
