<?xml version="1.0" encoding="iso-8859-1"?>
<!-- Generator: Adobe Illustrator 17.0.0, SVG Export Plug-In . SVG Version: 6.00 Build 0)  -->
<!DOCTYPE svg PUBLIC "-//W3C//DTD SVG 1.1//EN" "http://www.w3.org/Graphics/SVG/1.1/DTD/svg11.dtd">
<svg version="1.1" id="Capa_1" xmlns="http://www.w3.org/2000/svg" xmlns:xlink="http://www.w3.org/1999/xlink" x="0px" y="0px"
	 width="64px" height="64px" viewBox="0 0 64 64" style="enable-background:new 0 0 64 64;" xml:space="preserve">
<g>
	<path d="M55.046,17.919c0.754,2.359,1.173,4.841,1.173,7.37c0,7.653-8.019,13.608-19.5,14.481
		c-0.025,0.002-0.051,0.003-0.077,0.003c-0.518,0-0.956-0.399-0.996-0.924c-0.009-0.117,0.012-0.228,0.042-0.336
		c0.108-0.397,0.446-0.704,0.88-0.737c10.393-0.791,17.652-5.926,17.652-12.487c0-3.245-0.814-6.606-2.272-9.711
		C48.637,8.526,41.992,2.802,33.929,2.802S19.222,8.526,15.911,15.579c-1.458,3.105-2.272,6.466-2.272,9.711
		c0,2.673,1.24,5.195,3.587,7.294c0.291,0.26,0.384,0.651,0.289,1.004c-0.039,0.146-0.102,0.287-0.21,0.408
		c-0.369,0.41-1,0.446-1.412,0.078c-2.783-2.488-4.254-5.525-4.254-8.784c0-2.529,0.419-5.011,1.173-7.37
		C9.786,20.678,8,24.051,8,27.697c0,9.312,11.609,16.861,25.929,16.861s25.929-7.549,25.929-16.861
		C59.858,24.051,58.072,20.678,55.046,17.919z"/>
	<path d="M17.666,57.558c0,0,2.988,4.616,16.263-1.767c13.275,6.383,16.263,1.767,16.263,1.767
		c-5.357,0.591-7.015-1.416-7.015-1.416c2.168,0.526,4.464-0.442,4.464-0.442c-2.165-0.115-4.798-1.396-6.267-2.208
		c1.52,0.552,3.46,0.35,3.46,0.35s-1.786-0.338-2.806-3.462c-0.922-2.823-6.948-2.888-8.1-2.875c-1.152-0.014-7.177,0.051-8.1,2.875
		c-1.02,3.124-2.806,3.462-2.806,3.462s1.941,0.202,3.461-0.35c-1.469,0.812-4.101,2.093-6.267,2.208c0,0,2.296,0.969,4.464,0.442
		C24.682,56.143,23.023,58.149,17.666,57.558z"/>
</g>
</svg>
