<?xml version="1.0" encoding="iso-8859-1"?>
<!-- Generator: Adobe Illustrator 17.0.0, SVG Export Plug-In . SVG Version: 6.00 Build 0)  -->
<!DOCTYPE svg PUBLIC "-//W3C//DTD SVG 1.1//EN" "http://www.w3.org/Graphics/SVG/1.1/DTD/svg11.dtd">
<svg version="1.1" id="Capa_1" xmlns="http://www.w3.org/2000/svg" xmlns:xlink="http://www.w3.org/1999/xlink" x="0px" y="0px"
	 width="64px" height="64px" viewBox="0 0 64 64" style="enable-background:new 0 0 64 64;" xml:space="preserve">
<g>
	<path d="M54.056,21.184c-1.059,7.058-10.941,8.47-10.941,6.176c0-2.294,0.706-15.529-3-16.587
		c-3.706-1.059-2.294-6.529-4.235-7.058c-1.463-0.399-3.123-0.302-3.854-0.229c-0.731-0.072-2.392-0.17-3.854,0.229
		c-1.941,0.529-0.529,6-4.235,7.058c-3.706,1.059-3,14.293-3,16.587c0,2.294-9.882,0.882-10.941-6.176
		c-1.059-7.058-9.882,10.058-1.235,16.94c7.833,6.235,20.88,6.242,23.265,6.188c2.385,0.054,15.432,0.047,23.265-6.188
		C63.938,31.242,55.115,14.126,54.056,21.184z M24.29,25.111c-0.731,0-1.323-0.593-1.323-1.323s0.593-1.323,1.323-1.323
		c0.731,0,1.323,0.593,1.323,1.323S25.021,25.111,24.29,25.111z M29.054,26.169c-0.731,0-1.323-0.593-1.323-1.323
		c0-0.731,0.593-1.323,1.323-1.323c0.731,0,1.323,0.593,1.323,1.323C30.378,25.577,29.785,26.169,29.054,26.169z M35.407,26.169
		c-0.731,0-1.323-0.593-1.323-1.323c0-0.731,0.593-1.323,1.323-1.323c0.731,0,1.323,0.593,1.323,1.323
		C36.73,25.577,36.138,26.169,35.407,26.169z M40.171,25.111c-0.731,0-1.323-0.593-1.323-1.323s0.593-1.323,1.323-1.323
		s1.323,0.593,1.323,1.323S40.902,25.111,40.171,25.111z"/>
	<path d="M46.212,50.873c-0.395,2.667-2.238,2.667-2.238,2.667l-0.191,0.02v-0.02h-4.9l-3.89-3.89
		c-0.489,0.802-1.365,1.343-2.373,1.343c-1.094,0-2.031-0.636-2.487-1.553l-4.099,4.099h-4.768c0,0-1.844,0-2.239-2.667
		c-0.436-2.944-5.728,17.725,13.431,3.852h0.323C51.94,68.598,46.648,47.928,46.212,50.873z"/>
</g>
</svg>
