<?xml version="1.0" encoding="iso-8859-1"?>
<!-- Generator: Adobe Illustrator 17.0.0, SVG Export Plug-In . SVG Version: 6.00 Build 0)  -->
<!DOCTYPE svg PUBLIC "-//W3C//DTD SVG 1.1//EN" "http://www.w3.org/Graphics/SVG/1.1/DTD/svg11.dtd">
<svg version="1.1" id="Capa_1" xmlns="http://www.w3.org/2000/svg" xmlns:xlink="http://www.w3.org/1999/xlink" x="0px" y="0px"
	 width="64px" height="64px" viewBox="0 0 64 64" style="enable-background:new 0 0 64 64;" xml:space="preserve">
<g>
	<path d="M12.696,40.081c-1.558-1.06-3.238-2.408-3.986-3.948c-1.444-2.972,1.077-6.391,5.413-5.605
		c2.193,0.398,3.636,1.924,4.103,3.566c0.265,0.932,0.274,1.91-0.016,2.838c-0.235,0.751-0.859,2.225-1.694,2.7
		c2.112-1.203,3.368-3.219,3.368-5.263c0-3.631-3.74-6.574-8.354-6.574c-4.475,0-8.118,2.771-8.334,6.251
		c-0.347,2.822,0.243,8.494,9.857,10.568c12.905,2.785,18.857-3.383,18.952-3.483c0.096,0.1,6.048,6.268,18.952,3.483
		c9.614-2.075,10.203-7.746,9.857-10.568c-0.216-3.479-3.858-6.251-8.334-6.251c-4.614,0-8.354,2.943-8.354,6.574
		c0,2.043,1.255,4.06,3.368,5.263c-0.835-0.475-1.459-1.95-1.694-2.7c-0.291-0.929-0.282-1.907-0.016-2.838
		c0.467-1.641,1.911-3.168,4.103-3.566c4.336-0.786,6.857,2.633,5.413,5.605c-0.748,1.54-2.428,2.888-3.986,3.948
		c-10.158,6.91-19.112-4.19-19.304-4.344V35.73c0,0-0.004,0.003-0.005,0.004L32,35.73v0.007
		C31.808,35.891,22.854,46.991,12.696,40.081z"/>
</g>
</svg>
