<?xml version="1.0" encoding="iso-8859-1"?>
<!-- Generator: Adobe Illustrator 17.0.0, SVG Export Plug-In . SVG Version: 6.00 Build 0)  -->
<!DOCTYPE svg PUBLIC "-//W3C//DTD SVG 1.1//EN" "http://www.w3.org/Graphics/SVG/1.1/DTD/svg11.dtd">
<svg version="1.1" id="Capa_1" xmlns="http://www.w3.org/2000/svg" xmlns:xlink="http://www.w3.org/1999/xlink" x="0px" y="0px"
	 width="64px" height="64px" viewBox="0 0 64 64" style="enable-background:new 0 0 64 64;" xml:space="preserve">
<g>
	<path d="M16.329,37.748c4.064-6.751,7.171-5.953,8.044-5.538c0.086,0.041,0.148,0.077,0.19,0.103
		c0.036,0.023,0.057,0.038,0.057,0.038l0.001-0.006c0.46,0.213,0.967,0.341,1.507,0.341c1.984,0,3.593-1.609,3.593-3.593
		c0-1.984-1.609-3.593-3.593-3.593c0,0-8.41,0.163-11.84,7.185s-7.349,8.002-10.86,8.247C-0.083,41.177,11.512,45.75,16.329,37.748z
		"/>
	<path d="M36.499,32.685c0.54,0,1.047-0.128,1.507-0.341l0.001,0.006c0,0,0.021-0.015,0.057-0.038
		c0.041-0.026,0.104-0.062,0.19-0.103c0.872-0.415,3.98-1.212,8.044,5.538c4.818,8.002,16.412,3.429,12.901,3.184
		c-3.511-0.245-7.43-1.225-10.86-8.247S36.499,25.5,36.499,25.5c-1.984,0-3.593,1.609-3.593,3.593
		C32.907,31.077,34.515,32.685,36.499,32.685z"/>
</g>
</svg>
