<?xml version="1.0" encoding="iso-8859-1"?>
<!-- Generator: Adobe Illustrator 17.0.0, SVG Export Plug-In . SVG Version: 6.00 Build 0)  -->
<!DOCTYPE svg PUBLIC "-//W3C//DTD SVG 1.1//EN" "http://www.w3.org/Graphics/SVG/1.1/DTD/svg11.dtd">
<svg version="1.1" id="Capa_1" xmlns="http://www.w3.org/2000/svg" xmlns:xlink="http://www.w3.org/1999/xlink" x="0px" y="0px"
	 width="64px" height="64px" viewBox="0 0 64 64" style="enable-background:new 0 0 64 64;" xml:space="preserve">
<g>
	<path d="M58.021,32.79c0.1,8.884-5.123,8.359-7.647,7.591c-3.357-1.639-10.312-4.057-18.373-4.057
		c-7.131,0-13.408,1.966-17.086,3.547l0-0.001c0,0-0.01,0.005-0.02,0.01c-0.132,0.057-0.248,0.111-0.373,0.167
		c-1.746,0.726-8.701,2.98-8.585-7.256c0.132-11.702-2.911-22.684-3.308-6.41C2.231,42.655,4.21,43.691,15.859,43.415l-0.008-0.029
		c3.757,0.135,9.586-0.307,16.15-0.307c6.536,0,12.345,0.439,16.103,0.31l-0.007,0.027c11.649,0.276,13.628-0.76,13.231-17.034
		C60.932,10.106,57.889,21.088,58.021,32.79z"/>
</g>
</svg>
