<?xml version="1.0" encoding="iso-8859-1"?>
<!-- Generator: Adobe Illustrator 17.0.0, SVG Export Plug-In . SVG Version: 6.00 Build 0)  -->
<!DOCTYPE svg PUBLIC "-//W3C//DTD SVG 1.1//EN" "http://www.w3.org/Graphics/SVG/1.1/DTD/svg11.dtd">
<svg version="1.1" id="Capa_1" xmlns="http://www.w3.org/2000/svg" xmlns:xlink="http://www.w3.org/1999/xlink" x="0px" y="0px"
	 width="64px" height="64px" viewBox="0 0 64 64" style="enable-background:new 0 0 64 64;" xml:space="preserve">
<g>
	<path d="M59.531,37.478c-0.411,2.494-7.204-1.259-7.204-1.259l0.001,0.001c-5.512-3.223-11.239-6.141-13.262-7.156
		c-0.196-0.124-0.412-0.224-0.634-0.316c-0.085-0.042-0.131-0.065-0.131-0.065c-2.151-0.804-4.555,0.311-5.369,2.49
		s0.27,4.596,2.421,5.4c0.294,0.11,0.592,0.177,0.89,0.217c3.273,0.791,14.719,3.488,19.516,3.738
		C61.9,41.374,59.981,34.742,59.531,37.478z"/>
	<path d="M4.804,37.478c-0.45-2.736-2.37,3.896,3.772,3.051c4.797-0.25,16.243-2.948,19.516-3.738
		c0.298-0.04,0.597-0.107,0.89-0.217c2.151-0.804,3.235-3.221,2.421-5.4s-3.217-3.293-5.369-2.49c0,0-0.046,0.023-0.131,0.065
		c-0.221,0.092-0.438,0.192-0.634,0.316c-2.023,1.015-7.75,3.932-13.262,7.156l0.001-0.001C12.008,36.219,5.215,39.972,4.804,37.478
		z"/>
</g>
</svg>
