<?xml version="1.0" encoding="iso-8859-1"?>
<!-- Generator: Adobe Illustrator 17.0.0, SVG Export Plug-In . SVG Version: 6.00 Build 0)  -->
<!DOCTYPE svg PUBLIC "-//W3C//DTD SVG 1.1//EN" "http://www.w3.org/Graphics/SVG/1.1/DTD/svg11.dtd">
<svg version="1.1" id="Capa_1" xmlns="http://www.w3.org/2000/svg" xmlns:xlink="http://www.w3.org/1999/xlink" x="0px" y="0px"
	 width="64px" height="64px" viewBox="0 0 64 64" style="enable-background:new 0 0 64 64;" xml:space="preserve">
<g>
	<path d="M54.453,25.476c-1.023-1.19-2.817-0.922-3.877,0c-2.84,2.468-5.516,5.104-8.211,7.723
		c-2.758-2.483-5.344-5.142-8.018-7.723c-0.533-0.515-1.124-0.739-1.704-0.768c-0.062-0.006-0.124-0.003-0.187-0.004
		c-0.062,0.002-0.125-0.002-0.187,0.004c-0.579,0.03-1.171,0.254-1.704,0.768c-2.674,2.58-5.26,5.24-8.018,7.723
		c-2.696-2.619-5.372-5.255-8.211-7.723c-1.06-0.922-2.854-1.19-3.877,0c-2.479,2.882-4.928,5.786-7.494,8.591
		c-2.381,2.603,1.486,6.492,3.878,3.878c1.982-2.167,3.894-4.394,5.804-6.623c2.673,2.458,5.242,5.023,7.866,7.537
		c1.154,1.106,2.709,0.97,3.877,0c2.843-2.36,5.442-4.968,8.066-7.558c2.624,2.59,5.223,5.198,8.066,7.558
		c1.168,0.97,2.723,1.106,3.877,0c2.624-2.514,5.193-5.079,7.866-7.537c1.91,2.229,3.822,4.456,5.804,6.623
		c2.391,2.614,6.259-1.274,3.878-3.878C59.381,31.262,56.932,28.358,54.453,25.476z"/>
</g>
</svg>
