<?xml version="1.0" encoding="iso-8859-1"?>
<!-- Generator: Adobe Illustrator 17.0.0, SVG Export Plug-In . SVG Version: 6.00 Build 0)  -->
<!DOCTYPE svg PUBLIC "-//W3C//DTD SVG 1.1//EN" "http://www.w3.org/Graphics/SVG/1.1/DTD/svg11.dtd">
<svg version="1.1" id="Capa_1" xmlns="http://www.w3.org/2000/svg" xmlns:xlink="http://www.w3.org/1999/xlink" x="0px" y="0px"
	 width="64px" height="64px" viewBox="0 0 64 64" style="enable-background:new 0 0 64 64;" xml:space="preserve">
<g>
	<polygon points="13.5,37.037 17.85,40.787 21,36.437 25.35,40.487 26.55,37.935 31.5,41.537 36.45,37.935 37.65,40.487 42,36.437 
		45.15,40.787 49.5,37.037 53.55,40.337 61.5,26.087 53.4,35.537 49.2,29.688 45.9,34.337 42.9,30.812 38.7,35.537 38.7,31.637 
		31.5,36.59 24.3,31.637 24.3,35.537 20.1,30.812 17.1,34.337 13.8,29.688 9.6,35.537 1.5,26.087 9.45,40.337 	"/>
</g>
</svg>
